<svg xmlns="http://www.w3.org/2000/svg" xmlns:xlink="http://www.w3.org/1999/xlink" width="250" zoomAndPan="magnify" viewBox="0 0 187.5 74.999997" height="100" preserveAspectRatio="xMidYMid meet" version="1.0"><defs><filter x="0%" y="0%" width="100%" height="100%" id="5f1fd8a5e3"><feColorMatrix values="0 0 0 0 1 0 0 0 0 1 0 0 0 0 1 0 0 0 1 0" color-interpolation-filters="sRGB"/></filter><g/><clipPath id="b08c885bff"><path d="M 4.226562 11.152344 L 32 11.152344 L 32 62.015625 L 4.226562 62.015625 Z M 4.226562 11.152344 " clip-rule="nonzero"/></clipPath><mask id="7e1088153f"><g filter="url(#5f1fd8a5e3)"><rect x="-18.75" width="225" fill="#000000" y="-7.5" height="89.999996" fill-opacity="0.3"/></g></mask><clipPath id="dbe984781f"><path d="M 0.226562 0.152344 L 27 0.152344 L 27 51.015625 L 0.226562 51.015625 Z M 0.226562 0.152344 " clip-rule="nonzero"/></clipPath><clipPath id="609bd8857f"><rect x="0" width="28" y="0" height="52"/></clipPath><mask id="7b9c3e2102"><g filter="url(#5f1fd8a5e3)"><rect x="-18.75" width="225" fill="#000000" y="-7.5" height="89.999996" fill-opacity="0.2"/></g></mask><clipPath id="1b07530cf9"><path d="M 0.371094 0.0234375 L 24.308594 0.0234375 L 24.308594 46.460938 L 0.371094 46.460938 Z M 0.371094 0.0234375 " clip-rule="nonzero"/></clipPath><clipPath id="276424cec7"><rect x="0" width="25" y="0" height="47"/></clipPath><clipPath id="f9bf0df680"><path d="M 23 12 L 50.605469 12 L 50.605469 61 L 23 61 Z M 23 12 " clip-rule="nonzero"/></clipPath><clipPath id="d042bbd5b3"><path d="M 4.226562 11.152344 L 31 11.152344 L 31 62.015625 L 4.226562 62.015625 Z M 4.226562 11.152344 " clip-rule="nonzero"/></clipPath></defs><g clip-path="url(#b08c885bff)"><g mask="url(#7e1088153f)"><g transform="matrix(1, 0, 0, 1, 4, 11)"><g clip-path="url(#609bd8857f)"><g clip-path="url(#dbe984781f)"><path fill="#3c1589" d="M 23.726562 34.492188 C 24 34.917969 24.238281 35.390625 24.433594 35.917969 C 25.207031 37.980469 25.125 40.089844 25.097656 40.492188 C 25.019531 41.777344 24.710938 43.628906 23.703125 45.144531 C 23.597656 45.300781 23.488281 45.449219 23.375 45.585938 C 23.394531 45.621094 23.410156 45.660156 23.425781 45.695312 C 23.433594 45.710938 23.4375 45.726562 23.445312 45.742188 C 23.554688 46.011719 23.691406 46.414062 23.753906 46.898438 C 23.863281 47.761719 23.773438 49.378906 21.964844 50.507812 C 21.230469 50.964844 20.542969 51.125 19.933594 51.125 C 18.660156 51.125 17.746094 50.421875 17.574219 50.277344 C 17.382812 50.132812 16.34375 49.285156 15.894531 47.753906 C 15.613281 47.863281 15.320312 47.945312 15.015625 47.996094 C 14.738281 48.039062 14.464844 48.058594 14.195312 48.058594 C 13.042969 48.058594 11.984375 47.660156 11.101562 46.878906 C 10.15625 46.042969 9.453125 44.792969 9.097656 43.367188 C 8.972656 43.410156 8.839844 43.449219 8.695312 43.480469 C 8.476562 43.53125 8.21875 43.566406 7.9375 43.566406 C 7.28125 43.566406 6.488281 43.378906 5.667969 42.753906 C 4.167969 41.613281 3.902344 40.085938 3.898438 39.164062 C 3.691406 39.097656 3.488281 39.011719 3.292969 38.90625 C 1.796875 38.09375 0.960938 36.292969 0.996094 33.960938 C 1.023438 32.121094 1.78125 30.46875 3.003906 29.398438 C 2.511719 29.148438 2.054688 28.808594 1.660156 28.386719 C 0.761719 27.429688 0.25 26.148438 0.230469 24.785156 C 0.191406 22.421875 1.390625 19.921875 4.164062 19.660156 C 4.21875 19.65625 4.273438 19.652344 4.328125 19.648438 C 4.316406 19.628906 4.308594 19.609375 4.296875 19.585938 C 3.980469 18.878906 3.8125 18.113281 3.796875 17.320312 C 3.773438 15.867188 4.273438 14.492188 5.210938 13.445312 C 6.144531 12.398438 7.398438 11.808594 8.746094 11.78125 C 8.8125 11.78125 8.878906 11.78125 8.941406 11.78125 C 8.902344 11.515625 8.878906 11.246094 8.875 10.96875 C 8.851562 9.519531 9.351562 8.140625 10.285156 7.097656 C 11.21875 6.050781 12.476562 5.460938 13.820312 5.433594 C 13.914062 5.433594 14.007812 5.433594 14.101562 5.4375 C 14.105469 4.335938 14.460938 3.269531 15.136719 2.351562 C 16.09375 1.050781 17.625 0.191406 19.039062 0.164062 C 20.609375 0.132812 22.046875 0.707031 23.078125 1.773438 C 23.339844 2.046875 23.574219 2.34375 23.777344 2.667969 C 24.4375 3.714844 24.792969 5.027344 24.820312 6.523438 C 24.851562 8.484375 24.308594 10.347656 23.292969 11.765625 C 22.785156 12.480469 22.183594 13.039062 21.527344 13.433594 C 23.128906 14.496094 24.1875 16.390625 24.226562 18.550781 C 24.25 20.128906 23.824219 21.539062 22.992188 22.628906 C 22.882812 22.773438 22.769531 22.90625 22.65625 23.027344 C 23.601562 23.285156 24.472656 23.808594 25.191406 24.558594 C 26.285156 25.695312 26.902344 27.222656 26.929688 28.863281 C 26.96875 31.277344 25.703125 33.460938 23.726562 34.492188 Z M 23.726562 34.492188 " fill-opacity="1" fill-rule="nonzero"/></g></g></g></g></g><g mask="url(#7b9c3e2102)"><g transform="matrix(1, 0, 0, 1, 25, 13)"><g clip-path="url(#276424cec7)"><g clip-path="url(#1b07530cf9)"><path fill="#1a6070" d="M 24.25 14.058594 L 23.996094 28.300781 L 23.261719 28.515625 L 23.152344 36.269531 L 15.652344 45.273438 L 12.800781 45.273438 L 12.835938 46.179688 L 4.640625 46.023438 L 4.492188 43.847656 L 2.738281 43.742188 L 2.445312 43.742188 C 2.4375 43.726562 2.433594 43.710938 2.425781 43.695312 C 2.410156 43.660156 2.394531 43.621094 2.375 43.585938 C 2.488281 43.449219 2.597656 43.300781 2.699219 43.144531 C 3.710938 41.628906 4.019531 39.777344 4.097656 38.492188 C 4.125 38.089844 4.207031 35.980469 3.433594 33.917969 C 3.238281 33.390625 3 32.917969 2.726562 32.492188 C 4.703125 31.460938 5.96875 29.277344 5.925781 26.863281 C 5.902344 25.222656 5.285156 23.695312 4.191406 22.558594 C 3.46875 21.808594 2.601562 21.285156 1.65625 21.027344 C 1.769531 20.90625 1.882812 20.773438 1.988281 20.628906 C 2.824219 19.539062 3.25 18.128906 3.222656 16.550781 C 3.1875 14.390625 2.125 12.496094 0.527344 11.433594 C 1.183594 11.039062 1.785156 10.480469 2.292969 9.765625 C 3.308594 8.347656 3.851562 6.484375 3.816406 4.523438 C 3.792969 3.027344 3.4375 1.714844 2.773438 0.667969 L 3.253906 0.171875 L 13.207031 0.171875 L 14.226562 1.25 L 16.164062 1.675781 L 21.285156 7.355469 L 21.285156 13.632812 Z M 24.25 14.058594 " fill-opacity="1" fill-rule="nonzero"/></g></g></g></g><path fill="#1a6070" d="M 32.125 38.539062 C 31.804688 38.539062 31.53125 38.738281 31.398438 39.027344 L 26.453125 39.027344 C 26.320312 38.738281 26.042969 38.539062 25.726562 38.539062 C 25.277344 38.539062 24.914062 38.929688 24.914062 39.414062 C 24.914062 39.898438 25.277344 40.289062 25.726562 40.289062 C 26.042969 40.289062 26.320312 40.089844 26.453125 39.800781 L 31.398438 39.800781 C 31.53125 40.089844 31.804688 40.289062 32.125 40.289062 C 32.570312 40.289062 32.9375 39.898438 32.9375 39.414062 C 32.9375 38.929688 32.574219 38.539062 32.125 38.539062 Z M 32.125 38.539062 " fill-opacity="1" fill-rule="nonzero"/><path fill="#1a6070" d="M 30.660156 52.796875 C 31.109375 52.796875 31.472656 52.40625 31.472656 51.921875 C 31.472656 51.4375 31.109375 51.046875 30.660156 51.046875 C 30.636719 51.046875 30.609375 51.046875 30.585938 51.050781 L 29.160156 49.074219 L 26.453125 49.074219 C 26.320312 48.785156 26.042969 48.585938 25.726562 48.585938 C 25.277344 48.585938 24.914062 48.976562 24.914062 49.460938 C 24.914062 49.945312 25.277344 50.335938 25.726562 50.335938 C 26.042969 50.335938 26.320312 50.136719 26.453125 49.847656 L 28.808594 49.847656 L 29.972656 51.460938 C 29.898438 51.59375 29.851562 51.753906 29.851562 51.921875 C 29.851562 52.40625 30.214844 52.796875 30.660156 52.796875 Z M 30.660156 52.796875 " fill-opacity="1" fill-rule="nonzero"/><path fill="#1a6070" d="M 32.433594 49.066406 L 34.542969 49.066406 L 36.238281 50.894531 L 39.21875 50.894531 L 41.011719 48.960938 L 41.011719 48 L 43.007812 48 L 43.007812 42.722656 L 39.828125 42.722656 L 38.300781 44.371094 L 38.300781 44.875 L 36.292969 44.875 L 34.601562 46.699219 L 31.289062 46.699219 C 31.15625 46.410156 30.882812 46.210938 30.5625 46.210938 C 30.117188 46.210938 29.753906 46.605469 29.753906 47.085938 C 29.753906 47.570312 30.113281 47.964844 30.5625 47.964844 C 30.882812 47.964844 31.15625 47.761719 31.289062 47.472656 L 34.898438 47.472656 L 36.589844 45.648438 L 38.300781 45.648438 L 38.300781 48 L 40.296875 48 L 40.296875 48.640625 L 38.921875 50.121094 L 36.535156 50.121094 L 34.839844 48.292969 L 32.34375 48.292969 C 32.199219 48.058594 31.949219 47.902344 31.667969 47.902344 C 31.21875 47.902344 30.855469 48.296875 30.855469 48.777344 C 30.855469 49.261719 31.21875 49.65625 31.667969 49.65625 C 32.019531 49.65625 32.320312 49.410156 32.433594 49.066406 Z M 39.019531 44.691406 L 40.125 43.496094 L 42.289062 43.496094 L 42.289062 47.226562 L 39.019531 47.226562 Z M 39.019531 44.691406 " fill-opacity="1" fill-rule="nonzero"/><path fill="#1a6070" d="M 33.558594 42.820312 C 34.003906 42.820312 34.367188 42.425781 34.367188 41.945312 C 34.367188 41.460938 34.003906 41.066406 33.558594 41.066406 C 33.238281 41.066406 32.960938 41.265625 32.832031 41.558594 L 26.453125 41.558594 C 26.320312 41.265625 26.042969 41.066406 25.726562 41.066406 C 25.277344 41.066406 24.914062 41.460938 24.914062 41.945312 C 24.914062 42.425781 25.277344 42.820312 25.726562 42.820312 C 26.042969 42.820312 26.320312 42.621094 26.453125 42.332031 L 32.832031 42.332031 C 32.960938 42.621094 33.238281 42.820312 33.558594 42.820312 Z M 33.558594 42.820312 " fill-opacity="1" fill-rule="nonzero"/><path fill="#1a6070" d="M 25.886719 31.589844 L 29.019531 31.589844 C 29.152344 31.878906 29.429688 32.078125 29.746094 32.078125 C 30.195312 32.078125 30.558594 31.683594 30.558594 31.203125 C 30.558594 30.71875 30.195312 30.324219 29.746094 30.324219 C 29.429688 30.324219 29.152344 30.527344 29.019531 30.816406 L 25.886719 30.816406 C 25.753906 30.527344 25.476562 30.324219 25.15625 30.324219 C 24.710938 30.324219 24.347656 30.71875 24.347656 31.203125 C 24.347656 31.683594 24.710938 32.078125 25.15625 32.078125 C 25.476562 32.078125 25.753906 31.878906 25.886719 31.589844 Z M 25.886719 31.589844 " fill-opacity="1" fill-rule="nonzero"/><path fill="#1a6070" d="M 24.9375 21.121094 L 28.488281 21.121094 L 30.847656 17.839844 L 32.292969 17.839844 C 32.425781 18.128906 32.703125 18.328125 33.019531 18.328125 C 33.46875 18.328125 33.832031 17.9375 33.832031 17.453125 C 33.832031 16.96875 33.46875 16.578125 33.019531 16.578125 C 32.703125 16.578125 32.425781 16.777344 32.292969 17.066406 L 30.496094 17.066406 L 28.136719 20.347656 L 25.078125 20.347656 C 24.980469 19.980469 24.667969 19.710938 24.296875 19.710938 C 23.851562 19.710938 23.488281 20.101562 23.488281 20.585938 C 23.488281 21.070312 23.847656 21.460938 24.296875 21.460938 C 24.558594 21.460938 24.789062 21.328125 24.9375 21.121094 Z M 24.9375 21.121094 " fill-opacity="1" fill-rule="nonzero"/><path fill="#1a6070" d="M 44.820312 28.246094 L 47.753906 28.246094 L 47.753906 39.945312 L 44.820312 39.945312 Z M 44.820312 28.246094 " fill-opacity="1" fill-rule="nonzero"/><g clip-path="url(#f9bf0df680)"><path fill="#1a6070" d="M 50.136719 28.210938 L 50.136719 27.824219 L 50.941406 27.824219 L 50.941406 27.050781 L 50.136719 27.050781 L 50.136719 26.664062 L 49.378906 26.664062 L 49.378906 26.378906 L 46.644531 26.378906 L 46.644531 20.160156 L 41.332031 14.253906 L 39.46875 14.066406 L 38.386719 12.78125 L 28.023438 12.78125 L 26 15.378906 L 25.15625 15.367188 C 25.042969 15.03125 24.746094 14.789062 24.394531 14.789062 C 23.945312 14.789062 23.582031 15.179688 23.582031 15.664062 C 23.582031 16.148438 23.945312 16.539062 24.394531 16.539062 C 24.679688 16.539062 24.929688 16.378906 25.074219 16.140625 L 26.328125 16.160156 L 28.359375 13.554688 L 38.070312 13.554688 L 39.125 14.808594 L 41 14.996094 L 45.925781 20.476562 L 45.925781 26.378906 L 44.820312 26.378906 L 44.878906 21.238281 L 40.464844 16.351562 L 38.660156 16.351562 L 37.359375 14.542969 L 29.542969 14.542969 L 26.917969 17.859375 L 25.082031 17.859375 C 24.992188 17.480469 24.675781 17.203125 24.296875 17.203125 C 23.847656 17.203125 23.484375 17.59375 23.484375 18.078125 C 23.484375 18.5625 23.847656 18.953125 24.296875 18.953125 C 24.550781 18.953125 24.777344 18.828125 24.925781 18.632812 L 27.25 18.632812 L 29.871094 15.316406 L 37.007812 15.316406 L 38.308594 17.128906 L 40.160156 17.128906 L 44.15625 21.550781 L 44.101562 26.382812 L 43.195312 26.382812 L 43.195312 26.664062 L 42.4375 26.664062 L 42.4375 27.050781 L 37.066406 27.050781 L 34.023438 23.761719 L 28.96875 23.761719 L 25.460938 27.550781 C 25.367188 27.511719 25.265625 27.488281 25.15625 27.488281 C 24.710938 27.488281 24.347656 27.878906 24.347656 28.363281 C 24.347656 28.847656 24.710938 29.238281 25.15625 29.238281 C 25.605469 29.238281 25.96875 28.847656 25.96875 28.363281 C 25.96875 28.28125 25.957031 28.203125 25.9375 28.128906 L 29.265625 24.539062 L 33.726562 24.539062 L 36.769531 27.824219 L 42.4375 27.824219 L 42.4375 28.210938 L 43.191406 28.210938 L 43.191406 29.300781 L 42.4375 29.300781 L 42.4375 29.6875 L 36.113281 29.6875 L 34.417969 27.859375 L 30.8125 27.859375 C 30.679688 27.570312 30.40625 27.371094 30.085938 27.371094 C 29.636719 27.371094 29.273438 27.765625 29.273438 28.246094 C 29.273438 28.730469 29.636719 29.121094 30.085938 29.121094 C 30.40625 29.121094 30.679688 28.921875 30.8125 28.632812 L 34.121094 28.632812 L 35.816406 30.460938 L 42.433594 30.460938 L 42.433594 30.847656 L 43.191406 30.847656 L 43.191406 31.9375 L 42.433594 31.9375 L 42.433594 32.324219 L 35.15625 32.324219 L 33.464844 30.496094 L 32.5625 30.496094 C 32.429688 30.207031 32.152344 30.007812 31.835938 30.007812 C 31.386719 30.007812 31.023438 30.398438 31.023438 30.882812 C 31.023438 31.367188 31.386719 31.757812 31.835938 31.757812 C 32.152344 31.757812 32.429688 31.558594 32.5625 31.269531 L 33.167969 31.269531 L 34.859375 33.097656 L 42.433594 33.097656 L 42.433594 33.484375 L 43.191406 33.484375 L 43.191406 34.574219 L 42.433594 34.574219 L 42.433594 34.839844 L 33.914062 34.839844 L 33.914062 33.761719 L 33.371094 33.761719 L 33.371094 32.90625 L 32.65625 32.90625 L 32.65625 33.761719 L 32.15625 33.761719 L 32.15625 32.90625 L 31.4375 32.90625 L 31.4375 33.761719 L 31.0625 33.761719 L 31.0625 34.167969 L 30.300781 34.167969 L 30.300781 34.941406 L 31.0625 34.941406 L 31.0625 35.480469 L 30.300781 35.480469 L 30.300781 36.253906 L 31.0625 36.253906 L 31.0625 36.691406 L 31.4375 36.691406 L 31.4375 37.507812 L 32.15625 37.507812 L 32.15625 36.691406 L 32.65625 36.691406 L 32.65625 37.507812 L 33.371094 37.507812 L 33.371094 36.691406 L 33.914062 36.691406 L 33.914062 35.613281 L 42.433594 35.613281 L 42.433594 36.121094 L 43.191406 36.121094 L 43.191406 37.210938 L 42.433594 37.210938 L 42.433594 37.636719 L 37.535156 37.636719 L 35.839844 39.464844 L 35.238281 39.464844 C 35.105469 39.175781 34.828125 38.976562 34.511719 38.976562 C 34.0625 38.976562 33.699219 39.367188 33.699219 39.851562 C 33.699219 40.335938 34.0625 40.726562 34.511719 40.726562 C 34.828125 40.726562 35.105469 40.527344 35.238281 40.238281 L 36.136719 40.238281 L 37.832031 38.410156 L 42.4375 38.410156 L 42.4375 38.757812 L 43.191406 38.757812 L 43.191406 39.847656 L 42.4375 39.847656 L 42.4375 40.234375 L 38.714844 40.234375 L 35.171875 44.0625 L 32.851562 44.0625 C 32.71875 43.773438 32.441406 43.574219 32.125 43.574219 C 31.675781 43.574219 31.3125 43.96875 31.3125 44.449219 C 31.3125 44.933594 31.675781 45.328125 32.125 45.328125 C 32.441406 45.328125 32.71875 45.125 32.851562 44.835938 L 35.46875 44.835938 L 39.011719 41.007812 L 42.433594 41.007812 L 42.433594 41.394531 L 43.191406 41.394531 L 43.191406 41.8125 L 44.09375 41.8125 L 44.09375 47.828125 L 40.9375 51.507812 L 39.277344 51.507812 L 38.664062 52.242188 L 35.679688 52.242188 L 33.839844 50.257812 L 33.402344 50.257812 C 33.273438 49.953125 32.992188 49.742188 32.664062 49.742188 C 32.214844 49.742188 31.851562 50.132812 31.851562 50.617188 C 31.851562 51.097656 32.214844 51.492188 32.664062 51.492188 C 32.972656 51.492188 33.238281 51.304688 33.378906 51.03125 L 33.542969 51.03125 L 35.382812 53.015625 L 38.980469 53.015625 L 39.597656 52.28125 L 41.25 52.28125 L 44.8125 48.128906 L 44.8125 41.8125 L 45.925781 41.8125 L 45.925781 48.59375 L 39.152344 56.453125 L 38.207031 56.453125 L 38.207031 54.175781 L 37.753906 54.175781 L 37.753906 53.632812 L 37.035156 53.632812 L 37.035156 54.175781 L 36.265625 54.175781 L 36.265625 53.632812 L 35.546875 53.632812 L 35.546875 54.175781 L 34.777344 54.175781 L 34.777344 53.632812 L 34.0625 53.632812 L 34.0625 54.175781 L 33.289062 54.175781 L 33.289062 53.632812 L 32.574219 53.632812 L 32.574219 54.175781 L 31.800781 54.175781 L 31.800781 53.632812 L 31.085938 53.632812 L 31.085938 54.175781 L 30.316406 54.175781 L 30.316406 53.632812 L 29.597656 53.632812 L 29.597656 54.175781 L 29.21875 54.175781 L 29.21875 56.460938 L 28.050781 56.460938 L 26.375 52.972656 C 26.472656 52.828125 26.53125 52.648438 26.53125 52.457031 C 26.53125 51.972656 26.167969 51.582031 25.722656 51.582031 C 25.273438 51.582031 24.910156 51.972656 24.910156 52.457031 C 24.910156 52.9375 25.273438 53.332031 25.722656 53.332031 C 25.726562 53.332031 25.730469 53.332031 25.738281 53.332031 L 27.613281 57.234375 L 29.21875 57.234375 L 29.21875 59.503906 L 29.597656 59.503906 L 29.597656 60.046875 L 30.3125 60.046875 L 30.3125 59.503906 L 31.085938 59.503906 L 31.085938 60.046875 L 31.800781 60.046875 L 31.800781 59.503906 L 32.574219 59.503906 L 32.574219 60.046875 L 33.289062 60.046875 L 33.289062 59.503906 L 34.058594 59.503906 L 34.058594 60.046875 L 34.777344 60.046875 L 34.777344 59.503906 L 35.546875 59.503906 L 35.546875 60.046875 L 36.265625 60.046875 L 36.265625 59.503906 L 37.035156 59.503906 L 37.035156 60.046875 L 37.75 60.046875 L 37.75 59.503906 L 38.207031 59.503906 L 38.207031 58.675781 L 40.621094 58.675781 L 48.535156 49.613281 L 48.535156 41.8125 L 49.378906 41.8125 L 49.378906 41.394531 L 50.132812 41.394531 L 50.132812 41.007812 L 50.941406 41.007812 L 50.941406 40.234375 L 50.132812 40.234375 L 50.132812 39.847656 L 49.378906 39.847656 L 49.378906 38.757812 L 50.132812 38.757812 L 50.132812 38.371094 L 50.941406 38.371094 L 50.941406 37.597656 L 50.132812 37.597656 L 50.132812 37.210938 L 49.378906 37.210938 L 49.378906 36.121094 L 50.132812 36.121094 L 50.132812 35.734375 L 50.941406 35.734375 L 50.941406 34.960938 L 50.132812 34.960938 L 50.132812 34.574219 L 49.378906 34.574219 L 49.378906 33.484375 L 50.132812 33.484375 L 50.132812 33.097656 L 50.941406 33.097656 L 50.941406 32.324219 L 50.132812 32.324219 L 50.132812 31.9375 L 49.378906 31.9375 L 49.378906 30.847656 L 50.132812 30.847656 L 50.132812 30.460938 L 50.941406 30.460938 L 50.941406 29.6875 L 50.132812 29.6875 L 50.132812 29.300781 L 49.378906 29.300781 L 49.378906 28.210938 Z M 33.199219 35.917969 L 31.78125 35.917969 L 31.78125 34.53125 L 33.199219 34.53125 Z M 34.28125 56.484375 C 34.414062 56.746094 34.667969 56.917969 34.960938 56.917969 C 35.386719 56.917969 35.734375 56.546875 35.734375 56.082031 C 35.734375 55.621094 35.386719 55.246094 34.960938 55.246094 C 34.65625 55.246094 34.394531 55.4375 34.265625 55.710938 L 31.257812 55.710938 L 30.628906 56.460938 L 29.941406 56.460938 L 29.941406 54.949219 L 37.492188 54.949219 L 37.492188 56.453125 L 36.929688 56.453125 L 36.105469 57.4375 L 32.988281 57.4375 C 32.890625 57.097656 32.59375 56.847656 32.246094 56.847656 C 31.820312 56.847656 31.472656 57.222656 31.472656 57.683594 C 31.472656 58.148438 31.820312 58.519531 32.246094 58.519531 C 32.492188 58.519531 32.707031 58.398438 32.851562 58.210938 L 36.421875 58.210938 L 37.246094 57.226562 L 37.492188 57.226562 L 37.492188 58.730469 L 29.941406 58.730469 L 29.941406 57.234375 L 30.949219 57.234375 L 31.578125 56.488281 L 34.28125 56.488281 Z M 47.820312 49.308594 L 40.316406 57.902344 L 38.207031 57.902344 L 38.207031 57.226562 L 39.464844 57.226562 L 46.644531 48.894531 L 46.644531 41.8125 L 47.820312 41.8125 Z M 48.664062 41.039062 L 43.910156 41.039062 L 43.910156 27.152344 L 48.664062 27.152344 Z M 48.664062 41.039062 " fill-opacity="1" fill-rule="nonzero"/></g><path fill="#1a6070" d="M 40.652344 44.136719 C 39.96875 44.136719 39.410156 44.738281 39.410156 45.476562 C 39.410156 46.21875 39.96875 46.820312 40.652344 46.820312 C 41.339844 46.820312 41.894531 46.21875 41.894531 45.476562 C 41.894531 44.738281 41.339844 44.136719 40.652344 44.136719 Z M 40.652344 46.042969 C 40.363281 46.042969 40.128906 45.789062 40.128906 45.476562 C 40.128906 45.164062 40.363281 44.910156 40.652344 44.910156 C 40.945312 44.910156 41.179688 45.164062 41.179688 45.476562 C 41.179688 45.789062 40.945312 46.042969 40.652344 46.042969 Z M 40.652344 46.042969 " fill-opacity="1" fill-rule="nonzero"/><path fill="#1a6070" d="M 38.691406 17.738281 L 35.710938 17.738281 L 34.019531 19.566406 L 32.433594 19.566406 C 32.320312 19.222656 32.019531 18.980469 31.667969 18.980469 C 31.21875 18.980469 30.855469 19.371094 30.855469 19.855469 C 30.855469 20.339844 31.21875 20.730469 31.667969 20.730469 C 31.949219 20.730469 32.199219 20.574219 32.34375 20.339844 L 34.316406 20.339844 L 36.007812 18.511719 L 38.394531 18.511719 L 39.769531 19.996094 L 39.769531 20.632812 L 37.777344 20.632812 L 37.777344 22.988281 L 36.066406 22.988281 L 34.371094 21.160156 L 31.289062 21.160156 C 31.15625 20.871094 30.882812 20.671875 30.5625 20.671875 C 30.117188 20.671875 29.753906 21.0625 29.753906 21.546875 C 29.753906 22.03125 30.113281 22.421875 30.5625 22.421875 C 30.882812 22.421875 31.15625 22.222656 31.289062 21.933594 L 34.074219 21.933594 L 35.769531 23.761719 L 37.777344 23.761719 L 37.777344 24.261719 L 39.304688 25.910156 L 42.480469 25.910156 L 42.480469 21.859375 L 41.347656 20.632812 L 40.488281 20.632812 L 40.488281 19.675781 L 38.695312 17.738281 Z M 41.765625 22.179688 L 41.765625 25.136719 L 39.601562 25.136719 L 38.492188 23.941406 L 38.492188 21.410156 L 41.046875 21.410156 Z M 41.765625 22.179688 " fill-opacity="1" fill-rule="nonzero"/><path fill="#1a6070" d="M 40.128906 24.496094 C 40.8125 24.496094 41.371094 23.894531 41.371094 23.15625 C 41.371094 22.417969 40.8125 21.816406 40.128906 21.816406 C 39.445312 21.816406 38.886719 22.417969 38.886719 23.15625 C 38.886719 23.894531 39.445312 24.496094 40.128906 24.496094 Z M 40.128906 22.589844 C 40.417969 22.589844 40.652344 22.84375 40.652344 23.15625 C 40.652344 23.46875 40.417969 23.722656 40.128906 23.722656 C 39.839844 23.722656 39.601562 23.46875 39.601562 23.15625 C 39.601562 22.84375 39.839844 22.589844 40.128906 22.589844 Z M 40.128906 22.589844 " fill-opacity="1" fill-rule="nonzero"/><path fill="#3c1589" d="M 15.597656 34.316406 C 15.597656 34.554688 15.417969 34.746094 15.199219 34.746094 C 14.980469 34.746094 14.804688 34.554688 14.804688 34.316406 C 14.804688 34.082031 14.980469 33.890625 15.199219 33.890625 C 15.417969 33.890625 15.597656 34.082031 15.597656 34.316406 Z M 15.597656 34.316406 " fill-opacity="1" fill-rule="nonzero"/><path fill="#3c1589" d="M 11.015625 27.714844 C 11.015625 27.953125 10.839844 28.144531 10.621094 28.144531 C 10.402344 28.144531 10.226562 27.953125 10.226562 27.714844 C 10.226562 27.480469 10.402344 27.289062 10.621094 27.289062 C 10.839844 27.289062 11.015625 27.480469 11.015625 27.714844 Z M 11.015625 27.714844 " fill-opacity="1" fill-rule="nonzero"/><path fill="#3c1589" d="M 14.425781 26.4375 C 14.425781 26.671875 14.25 26.863281 14.03125 26.863281 C 13.8125 26.863281 13.636719 26.671875 13.636719 26.4375 C 13.636719 26.199219 13.8125 26.007812 14.03125 26.007812 C 14.25 26.007812 14.425781 26.199219 14.425781 26.4375 Z M 14.425781 26.4375 " fill-opacity="1" fill-rule="nonzero"/><path fill="#3c1589" d="M 14.808594 38.015625 C 14.753906 38.246094 14.539062 38.382812 14.328125 38.320312 C 14.113281 38.261719 13.988281 38.03125 14.042969 37.800781 C 14.097656 37.574219 14.316406 37.4375 14.527344 37.496094 C 14.738281 37.554688 14.863281 37.789062 14.808594 38.015625 Z M 14.808594 38.015625 " fill-opacity="1" fill-rule="nonzero"/><path fill="#3c1589" d="M 8.832031 34.148438 C 8.777344 34.375 8.5625 34.515625 8.347656 34.453125 C 8.136719 34.394531 8.011719 34.160156 8.066406 33.933594 C 8.121094 33.703125 8.335938 33.566406 8.546875 33.628906 C 8.761719 33.6875 8.886719 33.921875 8.832031 34.148438 Z M 8.832031 34.148438 " fill-opacity="1" fill-rule="nonzero"/><path fill="#3c1589" d="M 20.21875 36.183594 C 20.21875 36.304688 20.179688 36.402344 20.101562 36.488281 C 20.023438 36.570312 19.929688 36.613281 19.820312 36.613281 C 19.710938 36.613281 19.617188 36.570312 19.542969 36.488281 C 19.464844 36.402344 19.425781 36.304688 19.425781 36.183594 C 19.425781 36.066406 19.464844 35.964844 19.542969 35.882812 C 19.617188 35.800781 19.710938 35.757812 19.820312 35.757812 C 19.929688 35.757812 20.023438 35.800781 20.101562 35.882812 C 20.179688 35.964844 20.21875 36.066406 20.21875 36.183594 Z M 20.21875 36.183594 " fill-opacity="1" fill-rule="nonzero"/><path fill="#3c1589" d="M 14.480469 46.0625 C 14.480469 46.300781 14.300781 46.492188 14.082031 46.492188 C 13.867188 46.492188 13.6875 46.300781 13.6875 46.0625 C 13.6875 45.828125 13.863281 45.636719 14.082031 45.636719 C 14.300781 45.636719 14.480469 45.828125 14.480469 46.0625 Z M 14.480469 46.0625 " fill-opacity="1" fill-rule="nonzero"/><path fill="#3c1589" d="M 12.742188 43.246094 C 12.742188 43.480469 12.5625 43.671875 12.34375 43.671875 C 12.125 43.671875 11.949219 43.480469 11.949219 43.246094 C 11.949219 43.007812 12.125 42.816406 12.34375 42.816406 C 12.5625 42.816406 12.742188 43.007812 12.742188 43.246094 Z M 12.742188 43.246094 " fill-opacity="1" fill-rule="nonzero"/><path fill="#3c1589" d="M 9.796875 43.847656 C 9.796875 43.964844 9.757812 44.066406 9.679688 44.148438 C 9.601562 44.230469 9.507812 44.273438 9.398438 44.273438 C 9.292969 44.273438 9.199219 44.230469 9.121094 44.148438 C 9.042969 44.066406 9.003906 43.964844 9.003906 43.847656 C 9.003906 43.726562 9.042969 43.628906 9.121094 43.542969 C 9.199219 43.460938 9.292969 43.417969 9.398438 43.417969 C 9.507812 43.417969 9.601562 43.460938 9.679688 43.542969 C 9.757812 43.628906 9.796875 43.726562 9.796875 43.847656 Z M 9.796875 43.847656 " fill-opacity="1" fill-rule="nonzero"/><path fill="#3c1589" d="M 8.246094 37.089844 C 8.246094 37.328125 8.070312 37.519531 7.851562 37.519531 C 7.632812 37.519531 7.457031 37.328125 7.457031 37.089844 C 7.457031 36.855469 7.632812 36.664062 7.851562 36.664062 C 8.070312 36.664062 8.246094 36.855469 8.246094 37.089844 Z M 8.246094 37.089844 " fill-opacity="1" fill-rule="nonzero"/><path fill="#3c1589" d="M 9.796875 46.917969 C 9.796875 47.152344 9.617188 47.34375 9.398438 47.34375 C 9.183594 47.34375 9.003906 47.152344 9.003906 46.917969 C 9.003906 46.683594 9.183594 46.492188 9.398438 46.492188 C 9.617188 46.492188 9.796875 46.683594 9.796875 46.917969 Z M 9.796875 46.917969 " fill-opacity="1" fill-rule="nonzero"/><path fill="#3c1589" d="M 16.554688 49.816406 C 16.339844 49.816406 16.160156 50.007812 16.160156 50.242188 C 16.160156 50.480469 16.339844 50.671875 16.554688 50.671875 C 16.773438 50.671875 16.953125 50.480469 16.953125 50.242188 C 16.953125 50.007812 16.773438 49.816406 16.554688 49.816406 Z M 16.554688 49.816406 " fill-opacity="1" fill-rule="nonzero"/><path fill="#3c1589" d="M 19.902344 54.988281 C 19.902344 54.753906 19.722656 54.5625 19.507812 54.5625 C 19.289062 54.5625 19.109375 54.753906 19.109375 54.988281 C 19.109375 55.222656 19.289062 55.414062 19.507812 55.414062 C 19.722656 55.414062 19.902344 55.222656 19.902344 54.988281 Z M 19.902344 54.988281 " fill-opacity="1" fill-rule="nonzero"/><path fill="#3c1589" d="M 16.554688 54.285156 C 16.339844 54.285156 16.160156 54.476562 16.160156 54.714844 C 16.160156 54.949219 16.339844 55.140625 16.554688 55.140625 C 16.773438 55.140625 16.953125 54.949219 16.953125 54.714844 C 16.953125 54.476562 16.773438 54.285156 16.554688 54.285156 Z M 16.554688 54.285156 " fill-opacity="1" fill-rule="nonzero"/><path fill="#3c1589" d="M 19.199219 48.402344 C 19.199219 48.519531 19.160156 48.621094 19.082031 48.703125 C 19.007812 48.785156 18.914062 48.828125 18.804688 48.828125 C 18.695312 48.828125 18.601562 48.785156 18.523438 48.703125 C 18.445312 48.621094 18.40625 48.519531 18.40625 48.402344 C 18.40625 48.28125 18.445312 48.183594 18.523438 48.097656 C 18.601562 48.015625 18.695312 47.972656 18.804688 47.972656 C 18.914062 47.972656 19.007812 48.015625 19.082031 48.097656 C 19.160156 48.183594 19.199219 48.28125 19.199219 48.402344 Z M 19.199219 48.402344 " fill-opacity="1" fill-rule="nonzero"/><path fill="#3c1589" d="M 23.996094 55.140625 C 23.996094 55.378906 24.171875 55.566406 24.390625 55.566406 C 24.609375 55.566406 24.789062 55.378906 24.789062 55.140625 C 24.789062 54.90625 24.609375 54.714844 24.390625 54.714844 C 24.171875 54.714844 23.996094 54.90625 23.996094 55.140625 Z M 23.996094 55.140625 " fill-opacity="1" fill-rule="nonzero"/><path fill="#3c1589" d="M 22.988281 51.492188 C 22.988281 51.730469 23.164062 51.921875 23.382812 51.921875 C 23.601562 51.921875 23.78125 51.730469 23.78125 51.492188 C 23.78125 51.257812 23.601562 51.066406 23.382812 51.066406 C 23.164062 51.066406 22.988281 51.257812 22.988281 51.492188 Z M 22.988281 51.492188 " fill-opacity="1" fill-rule="nonzero"/><path fill="#3c1589" d="M 20.714844 41.515625 C 20.496094 41.515625 20.316406 41.707031 20.316406 41.941406 C 20.316406 42.179688 20.496094 42.371094 20.714844 42.371094 C 20.933594 42.371094 21.109375 42.179688 21.109375 41.941406 C 21.109375 41.707031 20.933594 41.515625 20.714844 41.515625 Z M 20.714844 41.515625 " fill-opacity="1" fill-rule="nonzero"/><path fill="#3c1589" d="M 21.503906 45.6875 C 21.722656 45.6875 21.902344 45.496094 21.902344 45.257812 C 21.902344 45.023438 21.722656 44.832031 21.503906 44.832031 C 21.285156 44.832031 21.109375 45.023438 21.109375 45.257812 C 21.109375 45.496094 21.285156 45.6875 21.503906 45.6875 Z M 21.503906 45.6875 " fill-opacity="1" fill-rule="nonzero"/><path fill="#3c1589" d="M 17.183594 42.816406 C 17.183594 43.054688 17.359375 43.246094 17.578125 43.246094 C 17.796875 43.246094 17.972656 43.054688 17.972656 42.816406 C 17.972656 42.582031 17.796875 42.390625 17.578125 42.390625 C 17.359375 42.390625 17.183594 42.582031 17.183594 42.816406 Z M 17.183594 42.816406 " fill-opacity="1" fill-rule="nonzero"/><path fill="#3c1589" d="M 23.613281 37.070312 C 23.613281 37.308594 23.789062 37.5 24.007812 37.5 C 24.226562 37.5 24.402344 37.308594 24.402344 37.070312 C 24.402344 36.835938 24.226562 36.644531 24.007812 36.644531 C 23.789062 36.644531 23.613281 36.835938 23.613281 37.070312 Z M 23.613281 37.070312 " fill-opacity="1" fill-rule="nonzero"/><path fill="#3c1589" d="M 18.933594 31.199219 C 18.933594 31.316406 18.894531 31.417969 18.816406 31.5 C 18.742188 31.585938 18.648438 31.628906 18.539062 31.628906 C 18.429688 31.628906 18.335938 31.585938 18.257812 31.5 C 18.179688 31.417969 18.140625 31.316406 18.140625 31.199219 C 18.140625 31.082031 18.179688 30.980469 18.257812 30.898438 C 18.335938 30.8125 18.429688 30.773438 18.539062 30.773438 C 18.648438 30.773438 18.742188 30.8125 18.816406 30.898438 C 18.894531 30.980469 18.933594 31.082031 18.933594 31.199219 Z M 18.933594 31.199219 " fill-opacity="1" fill-rule="nonzero"/><path fill="#3c1589" d="M 16.632812 20.785156 C 16.632812 21.019531 16.808594 21.210938 17.027344 21.210938 C 17.246094 21.210938 17.425781 21.019531 17.425781 20.785156 C 17.425781 20.546875 17.246094 20.355469 17.027344 20.355469 C 16.808594 20.355469 16.632812 20.546875 16.632812 20.785156 Z M 16.632812 20.785156 " fill-opacity="1" fill-rule="nonzero"/><path fill="#3c1589" d="M 21.261719 15.648438 C 21.261719 15.886719 21.4375 16.078125 21.65625 16.078125 C 21.875 16.078125 22.054688 15.886719 22.054688 15.648438 C 22.054688 15.414062 21.875 15.222656 21.65625 15.222656 C 21.4375 15.222656 21.261719 15.414062 21.261719 15.648438 Z M 21.261719 15.648438 " fill-opacity="1" fill-rule="nonzero"/><path fill="#3c1589" d="M 18.699219 22.949219 C 18.699219 23.1875 18.878906 23.378906 19.09375 23.378906 C 19.3125 23.378906 19.492188 23.1875 19.492188 22.949219 C 19.492188 22.714844 19.3125 22.523438 19.09375 22.523438 C 18.878906 22.523438 18.699219 22.714844 18.699219 22.949219 Z M 18.699219 22.949219 " fill-opacity="1" fill-rule="nonzero"/><path fill="#3c1589" d="M 21.65625 21.972656 C 21.65625 22.207031 21.835938 22.398438 22.054688 22.398438 C 22.273438 22.398438 22.449219 22.207031 22.449219 21.972656 C 22.449219 21.734375 22.273438 21.542969 22.054688 21.542969 C 21.835938 21.542969 21.65625 21.734375 21.65625 21.972656 Z M 21.65625 21.972656 " fill-opacity="1" fill-rule="nonzero"/><path fill="#3c1589" d="M 20.703125 27.289062 C 20.703125 27.40625 20.664062 27.507812 20.589844 27.589844 C 20.511719 27.675781 20.417969 27.71875 20.308594 27.71875 C 20.199219 27.71875 20.105469 27.675781 20.027344 27.589844 C 19.949219 27.507812 19.914062 27.40625 19.914062 27.289062 C 19.914062 27.171875 19.949219 27.070312 20.027344 26.988281 C 20.105469 26.902344 20.199219 26.863281 20.308594 26.863281 C 20.417969 26.863281 20.511719 26.902344 20.589844 26.988281 C 20.664062 27.070312 20.703125 27.171875 20.703125 27.289062 Z M 20.703125 27.289062 " fill-opacity="1" fill-rule="nonzero"/><path fill="#3c1589" d="M 22.953125 30.226562 C 22.953125 30.460938 23.132812 30.652344 23.351562 30.652344 C 23.570312 30.652344 23.746094 30.460938 23.746094 30.226562 C 23.746094 29.988281 23.570312 29.796875 23.351562 29.796875 C 23.132812 29.796875 22.953125 29.988281 22.953125 30.226562 Z M 22.953125 30.226562 " fill-opacity="1" fill-rule="nonzero"/><path fill="#3c1589" d="M 24.140625 27.058594 C 24.140625 27.175781 24.101562 27.277344 24.027344 27.359375 C 23.949219 27.445312 23.855469 27.484375 23.746094 27.484375 C 23.636719 27.484375 23.542969 27.445312 23.464844 27.359375 C 23.386719 27.277344 23.351562 27.175781 23.351562 27.058594 C 23.351562 26.941406 23.386719 26.839844 23.464844 26.757812 C 23.542969 26.671875 23.636719 26.632812 23.746094 26.632812 C 23.855469 26.632812 23.949219 26.671875 24.027344 26.757812 C 24.101562 26.839844 24.140625 26.941406 24.140625 27.058594 Z M 24.140625 27.058594 " fill-opacity="1" fill-rule="nonzero"/><path fill="#3c1589" d="M 12.503906 51.578125 C 12.503906 51.695312 12.464844 51.796875 12.386719 51.878906 C 12.3125 51.964844 12.21875 52.007812 12.109375 52.007812 C 12 52.007812 11.90625 51.964844 11.828125 51.878906 C 11.75 51.796875 11.710938 51.695312 11.710938 51.578125 C 11.710938 51.460938 11.75 51.359375 11.828125 51.277344 C 11.90625 51.191406 12 51.152344 12.109375 51.152344 C 12.21875 51.152344 12.3125 51.191406 12.386719 51.277344 C 12.464844 51.359375 12.503906 51.460938 12.503906 51.578125 Z M 12.503906 51.578125 " fill-opacity="1" fill-rule="nonzero"/><path fill="#3c1589" d="M 29.523438 40.058594 C 29.515625 40.488281 29.453125 40.902344 29.34375 41.300781 L 30.824219 41.300781 C 30.90625 40.898438 30.953125 40.480469 30.957031 40.058594 Z M 29.523438 40.058594 " fill-opacity="1" fill-rule="nonzero"/><path fill="#3c1589" d="M 27.019531 33.625 C 27.421875 33.101562 27.726562 32.503906 27.933594 31.84375 L 26.386719 31.84375 C 25.730469 33.28125 24.515625 33.820312 24.140625 33.957031 C 24.070312 33.972656 24 33.988281 23.933594 34.003906 C 23.90625 34.011719 23.878906 34.023438 23.851562 34.03125 C 23.296875 34.128906 22.46875 34.035156 21.914062 33.503906 C 21.375 32.980469 21.207031 32.132812 21.421875 30.980469 C 21.5 30.558594 21.25 30.152344 20.863281 30.066406 C 20.472656 29.984375 20.097656 30.253906 20.019531 30.675781 C 19.617188 32.828125 20.308594 34.027344 20.960938 34.65625 C 21.675781 35.34375 22.605469 35.617188 23.4375 35.617188 C 23.820312 35.617188 24.183594 35.558594 24.492188 35.457031 C 24.722656 35.410156 24.960938 35.386719 25.199219 35.378906 C 26.332031 35.359375 27.40625 35.816406 28.226562 36.664062 C 28.789062 37.25 29.179688 37.976562 29.378906 38.769531 L 30.847656 38.769531 C 30.625 37.550781 30.066406 36.433594 29.21875 35.550781 C 28.5 34.800781 27.628906 34.28125 26.6875 34.023438 C 26.800781 33.898438 26.910156 33.765625 27.019531 33.625 Z M 27.019531 33.625 " fill-opacity="1" fill-rule="nonzero"/><path fill="#3c1589" d="M 27.375 16.886719 L 28.554688 15.390625 C 28.445312 14.988281 28.300781 14.605469 28.128906 14.25 L 27.097656 15.570312 C 27.234375 15.972656 27.324219 16.414062 27.375 16.886719 Z M 27.375 16.886719 " fill-opacity="1" fill-rule="nonzero"/><path fill="#3c1589" d="M 28.203125 30.558594 C 28.242188 30.230469 28.257812 29.890625 28.253906 29.546875 C 28.238281 28.527344 27.992188 27.570312 27.570312 26.730469 L 26.496094 27.890625 C 26.695312 28.410156 26.8125 28.976562 26.820312 29.574219 C 26.828125 29.929688 26.804688 30.253906 26.761719 30.558594 Z M 28.203125 30.558594 " fill-opacity="1" fill-rule="nonzero"/><g clip-path="url(#d042bbd5b3)"><path fill="#3c1589" d="M 30.414062 42.589844 L 28.765625 42.589844 C 28.273438 43.351562 27.570312 43.953125 26.71875 44.285156 C 26.035156 43.695312 25.222656 43.308594 24.292969 43.140625 C 24.148438 41.6875 23.542969 40.34375 22.554688 39.3125 C 21.4375 38.152344 19.972656 37.53125 18.421875 37.558594 C 18.105469 37.566406 17.75 37.609375 17.386719 37.695312 C 17.785156 36.640625 18.027344 35.492188 18.011719 34.539062 C 17.992188 33.339844 17.667969 32.203125 17.070312 31.210938 C 17.566406 30.398438 17.851562 29.457031 17.898438 28.484375 C 19.460938 25.65625 20.710938 25.382812 21.714844 25.160156 C 21.96875 25.105469 22.230469 25.074219 22.492188 25.066406 C 22.570312 25.066406 22.644531 25.066406 22.710938 25.070312 L 22.722656 25.070312 C 22.800781 25.074219 22.878906 25.078125 22.953125 25.085938 C 22.960938 25.085938 22.964844 25.085938 22.972656 25.085938 C 24.144531 25.207031 25.167969 25.828125 25.863281 26.75 L 26.882812 25.652344 C 26.503906 25.175781 26.054688 24.761719 25.554688 24.429688 C 26.214844 24.035156 26.8125 23.476562 27.320312 22.765625 C 27.625 22.339844 27.886719 21.875 28.101562 21.382812 L 26.472656 21.382812 C 26.382812 21.53125 26.289062 21.679688 26.1875 21.816406 C 25.40625 22.910156 24.367188 23.523438 23.261719 23.542969 C 23.195312 23.546875 23.132812 23.546875 23.070312 23.542969 C 23.054688 23.542969 23.039062 23.542969 23.023438 23.542969 C 22.9375 23.535156 22.847656 23.527344 22.761719 23.523438 L 22.75 23.523438 C 22.660156 23.519531 22.566406 23.519531 22.46875 23.523438 C 22.117188 23.53125 21.765625 23.570312 21.429688 23.644531 C 20.230469 23.910156 18.953125 24.347656 17.566406 26.261719 C 17.546875 26.199219 17.523438 26.140625 17.5 26.082031 C 16.941406 24.671875 15.839844 23.574219 14.511719 23.074219 C 14.402344 22.710938 14.339844 22.332031 14.335938 21.941406 C 14.316406 20.902344 14.675781 19.917969 15.34375 19.167969 C 16.015625 18.417969 16.914062 17.996094 17.875 17.976562 C 18.046875 17.972656 18.222656 17.984375 18.390625 18.007812 C 19.371094 18.136719 20.265625 18.710938 20.851562 19.570312 C 21.085938 19.917969 21.535156 19.992188 21.855469 19.738281 C 22.171875 19.488281 22.242188 19.003906 22.007812 18.660156 C 21.394531 17.753906 20.535156 17.082031 19.570312 16.722656 C 19.488281 15.65625 19.898438 14.835938 20.285156 14.308594 C 20.988281 13.355469 22.089844 12.730469 23.09375 12.710938 C 24.300781 12.683594 25.347656 13.09375 26.113281 13.890625 C 26.25 14.03125 26.375 14.183594 26.492188 14.347656 L 27.433594 13.144531 C 27.328125 13.015625 27.222656 12.890625 27.105469 12.773438 C 26.074219 11.703125 24.640625 11.128906 23.066406 11.160156 C 21.652344 11.1875 20.121094 12.046875 19.164062 13.34375 C 18.488281 14.261719 18.132812 15.332031 18.128906 16.433594 C 18.035156 16.429688 17.941406 16.429688 17.851562 16.429688 C 16.503906 16.457031 15.25 17.046875 14.3125 18.09375 C 13.378906 19.136719 12.878906 20.515625 12.902344 21.964844 C 12.90625 22.242188 12.929688 22.511719 12.972656 22.777344 C 12.90625 22.777344 12.839844 22.777344 12.773438 22.777344 C 11.429688 22.804688 10.171875 23.394531 9.238281 24.441406 C 8.304688 25.488281 7.800781 26.863281 7.824219 28.316406 C 7.839844 29.109375 8.007812 29.871094 8.324219 30.582031 C 8.335938 30.605469 8.34375 30.625 8.355469 30.644531 C 8.300781 30.648438 8.246094 30.652344 8.191406 30.65625 C 5.417969 30.917969 4.21875 33.417969 4.257812 35.78125 C 4.28125 37.144531 4.789062 38.425781 5.6875 39.382812 C 6.085938 39.808594 6.539062 40.148438 7.03125 40.394531 C 5.808594 41.464844 5.050781 43.117188 5.023438 44.957031 C 4.988281 47.289062 5.828125 49.09375 7.324219 49.902344 C 7.519531 50.007812 7.71875 50.09375 7.925781 50.160156 C 7.929688 51.082031 8.195312 52.609375 9.695312 53.75 C 10.519531 54.375 11.3125 54.5625 11.964844 54.5625 C 12.246094 54.5625 12.503906 54.527344 12.726562 54.480469 C 12.867188 54.445312 13 54.40625 13.125 54.367188 C 13.484375 55.789062 14.1875 57.039062 15.128906 57.875 C 16.015625 58.65625 17.070312 59.054688 18.226562 59.054688 C 18.496094 59.054688 18.769531 59.035156 19.046875 58.992188 C 19.347656 58.941406 19.644531 58.863281 19.921875 58.753906 C 20.371094 60.28125 21.410156 61.128906 21.601562 61.273438 C 21.777344 61.417969 22.6875 62.121094 23.960938 62.121094 C 24.570312 62.121094 25.261719 61.960938 25.992188 61.503906 C 27.800781 60.378906 27.890625 58.757812 27.78125 57.894531 C 27.765625 57.753906 27.738281 57.617188 27.710938 57.492188 L 27.472656 57.492188 L 26.457031 55.382812 C 25.839844 56.238281 24.921875 56.882812 23.550781 56.90625 C 23.15625 56.914062 22.839844 57.269531 22.847656 57.695312 C 22.855469 58.117188 23.171875 58.453125 23.5625 58.453125 L 23.578125 58.453125 C 24.582031 58.433594 25.488281 58.15625 26.261719 57.640625 C 26.355469 57.949219 26.425781 58.359375 26.34375 58.773438 C 26.238281 59.324219 25.878906 59.789062 25.277344 60.167969 C 23.777344 61.101562 22.558594 60.121094 22.480469 60.050781 C 22.457031 60.03125 22.453125 60.027344 22.429688 60.011719 C 22.386719 59.980469 21.46875 59.285156 21.214844 57.972656 C 22.214844 57.117188 22.847656 55.835938 22.832031 54.46875 C 22.820312 53.5 22.347656 52.199219 21.308594 51.476562 C 20.589844 50.972656 19.332031 50.566406 17.429688 51.464844 C 17.066406 51.636719 16.902344 52.089844 17.058594 52.484375 C 17.21875 52.875 17.640625 53.054688 18.003906 52.882812 C 18.730469 52.539062 19.761719 52.238281 20.53125 52.777344 C 21.160156 53.210938 21.394531 54.039062 21.398438 54.492188 C 21.417969 55.929688 20.292969 57.234375 18.839844 57.460938 C 17.761719 57.628906 16.820312 57.367188 16.039062 56.679688 C 15.035156 55.792969 14.386719 54.253906 14.300781 52.5625 C 14.214844 50.839844 14.574219 49.261719 15.363281 47.871094 C 15.957031 46.832031 16.589844 46.285156 16.605469 46.273438 C 16.621094 46.257812 16.636719 46.242188 16.652344 46.230469 C 17.375 46.433594 18.128906 46.375 18.765625 46.027344 C 19.609375 45.570312 20.09375 44.679688 20.101562 43.582031 C 20.105469 43.15625 19.789062 42.808594 19.390625 42.804688 L 19.386719 42.804688 C 18.992188 42.804688 18.671875 43.148438 18.667969 43.570312 C 18.667969 44.089844 18.480469 44.449219 18.121094 44.648438 C 17.617188 44.921875 16.878906 44.808594 16.328125 44.375 C 15.878906 44.027344 15.167969 43.164062 15.429688 41.332031 C 15.488281 40.9375 15.640625 40.601562 15.851562 40.316406 C 15.941406 40.226562 16.035156 40.125 16.121094 40.019531 C 16.785156 39.390625 17.765625 39.121094 18.445312 39.105469 C 19.613281 39.085938 20.71875 39.554688 21.558594 40.429688 C 22.398438 41.304688 22.875 42.476562 22.894531 43.738281 C 22.921875 45.320312 22.214844 46.800781 21.011719 47.703125 C 20.683594 47.949219 20.605469 48.429688 20.828125 48.78125 C 20.96875 48.996094 21.191406 49.113281 21.417969 49.113281 C 21.558594 49.113281 21.703125 49.066406 21.828125 48.976562 C 23.167969 47.972656 24.042969 46.425781 24.269531 44.710938 C 25.59375 45.023438 26.558594 45.957031 27.136719 47.496094 C 27.300781 47.941406 27.421875 48.390625 27.503906 48.816406 L 28.964844 48.816406 C 28.863281 48.214844 28.707031 47.5625 28.464844 46.914062 C 28.265625 46.390625 28.027344 45.914062 27.753906 45.492188 C 28.941406 44.871094 29.867188 43.839844 30.414062 42.589844 Z M 12.871094 52.644531 C 12.875 52.703125 12.875 52.761719 12.878906 52.816406 C 12.40625 53.027344 11.507812 53.234375 10.519531 52.484375 C 9.601562 51.785156 9.390625 50.875 9.363281 50.289062 C 9.960938 50.207031 10.535156 49.964844 11.023438 49.5625 C 12.140625 48.636719 12.585938 47.09375 12.25 45.324219 C 12.167969 44.90625 11.789062 44.636719 11.402344 44.722656 C 11.015625 44.808594 10.765625 45.21875 10.847656 45.636719 C 11.074219 46.820312 10.828125 47.777344 10.152344 48.335938 C 9.542969 48.839844 8.6875 48.914062 7.96875 48.523438 C 6.984375 47.988281 6.433594 46.695312 6.457031 44.980469 C 6.484375 43.03125 7.605469 41.371094 9.246094 40.851562 C 9.578125 40.746094 9.925781 40.6875 10.28125 40.679688 L 10.3125 40.679688 C 10.332031 40.679688 10.355469 40.679688 10.378906 40.679688 C 10.390625 40.679688 10.40625 40.679688 10.417969 40.679688 L 10.472656 40.679688 C 11.0625 40.683594 12.636719 40.695312 13.8125 42.140625 C 13.851562 42.191406 13.898438 42.234375 13.949219 42.273438 C 13.992188 43.59375 14.460938 44.714844 15.296875 45.46875 C 14.449219 46.382812 12.675781 48.777344 12.871094 52.648438 Z M 15.121094 38.902344 C 14.714844 39.296875 14.382812 39.792969 14.179688 40.398438 C 12.714844 39.152344 11.078125 39.136719 10.480469 39.132812 L 10.414062 39.132812 C 10.414062 39.132812 10.410156 39.132812 10.40625 39.132812 C 10.371094 39.132812 10.335938 39.132812 10.296875 39.132812 C 10.28125 39.132812 10.269531 39.132812 10.253906 39.132812 C 9.8125 39.140625 9.375 39.210938 8.953125 39.332031 C 7.179688 39.269531 5.722656 37.683594 5.691406 35.753906 C 5.664062 34.230469 6.339844 32.382812 8.316406 32.199219 C 8.769531 32.15625 9.175781 32.195312 9.53125 32.289062 C 9.65625 32.390625 9.804688 32.441406 9.953125 32.441406 C 10.648438 32.761719 11.078125 33.335938 11.183594 33.933594 C 11.320312 34.71875 10.894531 35.347656 10.039062 35.617188 C 9.660156 35.734375 9.445312 36.164062 9.554688 36.574219 C 9.664062 36.984375 10.0625 37.21875 10.445312 37.097656 C 12.242188 36.53125 12.820312 34.957031 12.59375 33.648438 C 12.394531 32.503906 11.570312 31.40625 10.261719 30.910156 C 10.253906 30.902344 10.246094 30.894531 10.238281 30.882812 C 10.238281 30.882812 10.234375 30.878906 10.230469 30.875 C 10.207031 30.847656 10.183594 30.820312 10.160156 30.792969 C 9.941406 30.527344 9.757812 30.230469 9.617188 29.90625 C 9.390625 29.402344 9.269531 28.855469 9.257812 28.289062 C 9.242188 27.246094 9.601562 26.261719 10.269531 25.511719 C 10.9375 24.765625 11.835938 24.34375 12.800781 24.324219 C 13.132812 24.316406 13.464844 24.359375 13.785156 24.449219 C 14.851562 24.753906 15.746094 25.589844 16.183594 26.6875 C 16.367188 27.148438 16.464844 27.640625 16.472656 28.148438 C 16.480469 28.78125 16.347656 29.402344 16.089844 29.957031 C 15.445312 29.324219 14.679688 28.851562 13.835938 28.574219 C 13.457031 28.453125 13.054688 28.683594 12.941406 29.09375 C 12.828125 29.5 13.042969 29.933594 13.421875 30.054688 C 14.292969 30.339844 15.054688 30.902344 15.625 31.679688 C 15.625 31.683594 15.625 31.683594 15.628906 31.683594 C 16.230469 32.511719 16.5625 33.507812 16.578125 34.566406 C 16.601562 35.890625 15.914062 37.871094 15.121094 38.902344 Z M 15.121094 38.902344 " fill-opacity="1" fill-rule="nonzero"/></g><path fill="#3c1589" d="M 27.328125 18.886719 C 27.265625 19.304688 27.171875 19.707031 27.046875 20.089844 L 28.019531 20.089844 L 28.75 19.078125 C 28.824219 18.570312 28.855469 18.046875 28.847656 17.519531 C 28.84375 17.355469 28.835938 17.195312 28.828125 17.035156 L 27.359375 18.886719 Z M 27.328125 18.886719 " fill-opacity="1" fill-rule="nonzero"/><path fill="#3c1589" d="M 28.691406 50.105469 L 27.679688 50.105469 C 27.730469 50.789062 27.703125 51.28125 27.699219 51.382812 C 27.664062 51.925781 27.550781 52.988281 27.160156 54.039062 L 27.976562 55.742188 C 28.792969 54.308594 29.054688 52.660156 29.128906 51.488281 C 29.136719 51.367188 29.148438 51.101562 29.140625 50.730469 Z M 28.691406 50.105469 " fill-opacity="1" fill-rule="nonzero"/><g fill="#ffffff" fill-opacity="1"><g transform="translate(54.224703, 42.940918)"><g><path d="M 1.234375 -15.140625 L 13.90625 -15.140625 C 14.0625 -15.140625 14.195312 -15.082031 14.3125 -14.96875 C 14.425781 -14.851562 14.484375 -14.710938 14.484375 -14.546875 L 14.484375 -11.078125 C 14.484375 -10.910156 14.425781 -10.769531 14.3125 -10.65625 C 14.195312 -10.539062 14.0625 -10.484375 13.90625 -10.484375 L 10.3125 -10.484375 L 10.3125 -0.578125 C 10.3125 -0.421875 10.253906 -0.285156 10.140625 -0.171875 C 10.023438 -0.0546875 9.890625 0 9.734375 0 L 5.40625 0 C 5.25 0 5.113281 -0.0546875 5 -0.171875 C 4.882812 -0.285156 4.828125 -0.421875 4.828125 -0.578125 L 4.828125 -10.484375 L 1.234375 -10.484375 C 1.078125 -10.484375 0.941406 -10.539062 0.828125 -10.65625 C 0.710938 -10.769531 0.65625 -10.910156 0.65625 -11.078125 L 0.65625 -14.546875 C 0.65625 -14.710938 0.710938 -14.851562 0.828125 -14.96875 C 0.941406 -15.082031 1.078125 -15.140625 1.234375 -15.140625 Z M 1.234375 -15.140625 "/></g></g></g><g fill="#ffffff" fill-opacity="1"><g transform="translate(69.360713, 42.940918)"><g><path d="M 6.46875 -6.40625 L 6.46875 -0.578125 C 6.46875 -0.421875 6.410156 -0.285156 6.296875 -0.171875 C 6.179688 -0.0546875 6.039062 0 5.875 0 L 1.671875 0 C 1.503906 0 1.363281 -0.0546875 1.25 -0.171875 C 1.132812 -0.285156 1.078125 -0.421875 1.078125 -0.578125 L 1.078125 -14.765625 C 1.078125 -14.921875 1.132812 -15.054688 1.25 -15.171875 C 1.363281 -15.296875 1.503906 -15.359375 1.671875 -15.359375 L 5.875 -15.359375 C 6.039062 -15.359375 6.179688 -15.296875 6.296875 -15.171875 C 6.410156 -15.054688 6.46875 -14.921875 6.46875 -14.765625 L 6.46875 -10.125 C 7.289062 -11.019531 8.34375 -11.46875 9.625 -11.46875 C 10.90625 -11.46875 11.960938 -11.046875 12.796875 -10.203125 C 13.640625 -9.367188 14.0625 -8.148438 14.0625 -6.546875 L 14.0625 -0.609375 C 14.0625 -0.453125 14 -0.3125 13.875 -0.1875 C 13.757812 -0.0703125 13.625 -0.015625 13.46875 -0.015625 L 9.234375 -0.015625 C 9.078125 -0.015625 8.941406 -0.0703125 8.828125 -0.1875 C 8.710938 -0.3125 8.65625 -0.453125 8.65625 -0.609375 L 8.65625 -6.40625 C 8.65625 -7.195312 8.289062 -7.59375 7.5625 -7.59375 C 6.832031 -7.59375 6.46875 -7.195312 6.46875 -6.40625 Z M 6.46875 -6.40625 "/></g></g></g><g fill="#ffffff" fill-opacity="1"><g transform="translate(84.388601, 42.940918)"><g><path d="M 12.5 -4.34375 L 6.0625 -4.34375 L 6.0625 -4.234375 C 6.0625 -3.359375 6.335938 -2.921875 6.890625 -2.921875 C 7.054688 -2.921875 7.253906 -3.035156 7.484375 -3.265625 C 7.710938 -3.492188 7.960938 -3.609375 8.234375 -3.609375 L 12.328125 -3.609375 C 12.640625 -3.609375 12.796875 -3.453125 12.796875 -3.140625 C 12.796875 -2.429688 12.265625 -1.691406 11.203125 -0.921875 C 10.148438 -0.160156 8.71875 0.21875 6.90625 0.21875 C 5.09375 0.21875 3.613281 -0.25 2.46875 -1.1875 C 1.320312 -2.132812 0.75 -3.441406 0.75 -5.109375 L 0.75 -6.140625 C 0.75 -7.710938 1.332031 -8.992188 2.5 -9.984375 C 3.675781 -10.972656 5.210938 -11.46875 7.109375 -11.46875 C 9.003906 -11.46875 10.472656 -10.910156 11.515625 -9.796875 C 12.554688 -8.679688 13.078125 -7.273438 13.078125 -5.578125 L 13.078125 -4.9375 C 13.078125 -4.769531 13.019531 -4.628906 12.90625 -4.515625 C 12.789062 -4.398438 12.65625 -4.34375 12.5 -4.34375 Z M 7.78125 -7.140625 C 7.78125 -8.003906 7.492188 -8.4375 6.921875 -8.4375 C 6.347656 -8.4375 6.0625 -8.003906 6.0625 -7.140625 L 6.0625 -7.046875 L 7.78125 -7.046875 Z M 7.78125 -7.140625 "/></g></g></g><g fill="#ffffff" fill-opacity="1"><g transform="translate(98.227236, 42.940918)"><g/></g></g><g fill="#ffffff" fill-opacity="1"><g transform="translate(104.497866, 42.940918)"><g><path d="M 2.953125 -13.75 C 4.273438 -14.820312 6.023438 -15.359375 8.203125 -15.359375 C 10.378906 -15.359375 12.125 -14.816406 13.4375 -13.734375 C 14.757812 -12.660156 15.421875 -11.15625 15.421875 -9.21875 L 15.421875 -5.84375 C 15.421875 -3.863281 14.765625 -2.359375 13.453125 -1.328125 C 12.148438 -0.296875 10.394531 0.21875 8.1875 0.21875 C 5.988281 0.21875 4.234375 -0.296875 2.921875 -1.328125 C 1.617188 -2.359375 0.96875 -3.863281 0.96875 -5.84375 L 0.96875 -9.21875 C 0.96875 -11.175781 1.628906 -12.6875 2.953125 -13.75 Z M 7.015625 -4.421875 C 7.304688 -4.140625 7.695312 -4 8.1875 -4 C 8.6875 -4 9.078125 -4.140625 9.359375 -4.421875 C 9.648438 -4.710938 9.796875 -5.15625 9.796875 -5.75 L 9.796875 -9.390625 C 9.796875 -9.960938 9.648438 -10.394531 9.359375 -10.6875 C 9.078125 -10.988281 8.6875 -11.140625 8.1875 -11.140625 C 7.695312 -11.140625 7.304688 -10.988281 7.015625 -10.6875 C 6.734375 -10.394531 6.59375 -9.960938 6.59375 -9.390625 L 6.59375 -5.75 C 6.59375 -5.15625 6.734375 -4.710938 7.015625 -4.421875 Z M 7.015625 -4.421875 "/></g></g></g><g fill="#ffffff" fill-opacity="1"><g transform="translate(120.887998, 42.940918)"><g><path d="M 5.8125 -10.65625 L 5.8125 -9.90625 C 6.820312 -10.800781 7.945312 -11.25 9.1875 -11.25 L 10.234375 -11.25 C 10.390625 -11.25 10.523438 -11.191406 10.640625 -11.078125 C 10.753906 -10.960938 10.8125 -10.820312 10.8125 -10.65625 L 10.8125 -7.28125 C 10.8125 -7.125 10.753906 -6.988281 10.640625 -6.875 C 10.523438 -6.757812 10.390625 -6.703125 10.234375 -6.703125 L 7.4375 -6.703125 C 7.050781 -6.703125 6.742188 -6.609375 6.515625 -6.421875 C 6.296875 -6.242188 6.171875 -6.003906 6.140625 -5.703125 L 6.140625 -0.578125 C 6.140625 -0.421875 6.082031 -0.285156 5.96875 -0.171875 C 5.851562 -0.0546875 5.71875 0 5.5625 0 L 1.453125 0 C 1.296875 0 1.15625 -0.0546875 1.03125 -0.171875 C 0.914062 -0.285156 0.859375 -0.421875 0.859375 -0.578125 L 0.859375 -10.65625 C 0.859375 -10.820312 0.914062 -10.960938 1.03125 -11.078125 C 1.15625 -11.191406 1.296875 -11.25 1.453125 -11.25 L 5.234375 -11.25 C 5.390625 -11.25 5.523438 -11.191406 5.640625 -11.078125 C 5.753906 -10.960938 5.8125 -10.820312 5.8125 -10.65625 Z M 5.8125 -10.65625 "/></g></g></g><g fill="#ffffff" fill-opacity="1"><g transform="translate(132.348112, 42.940918)"><g><path d="M 0.75 -3.21875 C 0.75 -5.164062 2.332031 -6.414062 5.5 -6.96875 L 7.78125 -7.328125 C 7.78125 -7.765625 7.742188 -8.054688 7.671875 -8.203125 C 7.597656 -8.359375 7.425781 -8.4375 7.15625 -8.4375 C 6.894531 -8.4375 6.632812 -8.316406 6.375 -8.078125 C 6.113281 -7.847656 5.867188 -7.734375 5.640625 -7.734375 L 1.96875 -7.734375 C 1.644531 -7.734375 1.484375 -7.890625 1.484375 -8.203125 C 1.484375 -8.515625 1.59375 -8.847656 1.8125 -9.203125 C 2.039062 -9.554688 2.367188 -9.90625 2.796875 -10.25 C 3.222656 -10.59375 3.820312 -10.878906 4.59375 -11.109375 C 5.363281 -11.347656 6.222656 -11.46875 7.171875 -11.46875 C 9.109375 -11.46875 10.554688 -11.0625 11.515625 -10.25 C 12.484375 -9.445312 12.96875 -8.296875 12.96875 -6.796875 L 12.96875 -0.578125 C 12.96875 -0.421875 12.910156 -0.285156 12.796875 -0.171875 C 12.679688 -0.0546875 12.546875 0 12.390625 0 L 8.609375 0 C 8.453125 0 8.3125 -0.0546875 8.1875 -0.171875 C 8.070312 -0.285156 8.015625 -0.421875 8.015625 -0.578125 L 8.015625 -1.1875 C 7.335938 -0.25 6.347656 0.21875 5.046875 0.21875 C 3.753906 0.21875 2.710938 -0.109375 1.921875 -0.765625 C 1.140625 -1.421875 0.75 -2.238281 0.75 -3.21875 Z M 6.4375 -2.984375 C 7.375 -2.984375 7.84375 -3.546875 7.84375 -4.671875 L 6.578125 -4.390625 C 5.941406 -4.242188 5.625 -3.976562 5.625 -3.59375 C 5.625 -3.414062 5.695312 -3.269531 5.84375 -3.15625 C 5.988281 -3.039062 6.1875 -2.984375 6.4375 -2.984375 Z M 6.4375 -2.984375 "/></g></g></g><g fill="#ffffff" fill-opacity="1"><g transform="translate(146.294855, 42.940918)"><g><path d="M 6.0625 -6.375 L 6.0625 -4.859375 C 6.0625 -4.367188 6.125 -4.015625 6.25 -3.796875 C 6.375 -3.585938 6.570312 -3.484375 6.84375 -3.484375 C 7.125 -3.484375 7.3125 -3.53125 7.40625 -3.625 C 7.507812 -3.71875 7.613281 -3.894531 7.71875 -4.15625 C 7.832031 -4.425781 8.039062 -4.5625 8.34375 -4.5625 L 12.5625 -4.5625 C 12.71875 -4.5625 12.851562 -4.503906 12.96875 -4.390625 C 13.082031 -4.273438 13.140625 -4.125 13.140625 -3.9375 C 13.140625 -3.75 13.078125 -3.492188 12.953125 -3.171875 C 12.828125 -2.859375 12.601562 -2.5 12.28125 -2.09375 C 11.96875 -1.6875 11.578125 -1.3125 11.109375 -0.96875 C 10.648438 -0.632812 10.046875 -0.351562 9.296875 -0.125 C 8.546875 0.101562 7.71875 0.21875 6.8125 0.21875 C 5.007812 0.21875 3.546875 -0.25 2.421875 -1.1875 C 1.304688 -2.132812 0.75 -3.445312 0.75 -5.125 L 0.75 -6.125 C 0.75 -7.789062 1.304688 -9.097656 2.421875 -10.046875 C 3.546875 -10.992188 5.007812 -11.46875 6.8125 -11.46875 C 7.875 -11.46875 8.835938 -11.300781 9.703125 -10.96875 C 10.566406 -10.644531 11.234375 -10.25 11.703125 -9.78125 C 12.171875 -9.3125 12.523438 -8.851562 12.765625 -8.40625 C 13.015625 -7.957031 13.140625 -7.613281 13.140625 -7.375 C 13.140625 -7.144531 13.082031 -6.972656 12.96875 -6.859375 C 12.851562 -6.742188 12.71875 -6.6875 12.5625 -6.6875 L 8.34375 -6.6875 C 8.070312 -6.6875 7.863281 -6.828125 7.71875 -7.109375 C 7.519531 -7.546875 7.253906 -7.765625 6.921875 -7.765625 C 6.347656 -7.765625 6.0625 -7.300781 6.0625 -6.375 Z M 6.0625 -6.375 "/></g></g></g><g fill="#ffffff" fill-opacity="1"><g transform="translate(160.090238, 42.940918)"><g><path d="M 5.53125 0 L 1.671875 0 C 1.503906 0 1.363281 -0.0546875 1.25 -0.171875 C 1.132812 -0.285156 1.078125 -0.421875 1.078125 -0.578125 L 1.078125 -14.765625 C 1.078125 -14.921875 1.132812 -15.054688 1.25 -15.171875 C 1.363281 -15.296875 1.503906 -15.359375 1.671875 -15.359375 L 5.53125 -15.359375 C 5.695312 -15.359375 5.835938 -15.296875 5.953125 -15.171875 C 6.066406 -15.054688 6.125 -14.921875 6.125 -14.765625 L 6.125 -0.578125 C 6.125 -0.421875 6.066406 -0.285156 5.953125 -0.171875 C 5.835938 -0.0546875 5.695312 0 5.53125 0 Z M 5.53125 0 "/></g></g></g><g fill="#ffffff" fill-opacity="1"><g transform="translate(167.290654, 42.940918)"><g><path d="M 12.5 -4.34375 L 6.0625 -4.34375 L 6.0625 -4.234375 C 6.0625 -3.359375 6.335938 -2.921875 6.890625 -2.921875 C 7.054688 -2.921875 7.253906 -3.035156 7.484375 -3.265625 C 7.710938 -3.492188 7.960938 -3.609375 8.234375 -3.609375 L 12.328125 -3.609375 C 12.640625 -3.609375 12.796875 -3.453125 12.796875 -3.140625 C 12.796875 -2.429688 12.265625 -1.691406 11.203125 -0.921875 C 10.148438 -0.160156 8.71875 0.21875 6.90625 0.21875 C 5.09375 0.21875 3.613281 -0.25 2.46875 -1.1875 C 1.320312 -2.132812 0.75 -3.441406 0.75 -5.109375 L 0.75 -6.140625 C 0.75 -7.710938 1.332031 -8.992188 2.5 -9.984375 C 3.675781 -10.972656 5.210938 -11.46875 7.109375 -11.46875 C 9.003906 -11.46875 10.472656 -10.910156 11.515625 -9.796875 C 12.554688 -8.679688 13.078125 -7.273438 13.078125 -5.578125 L 13.078125 -4.9375 C 13.078125 -4.769531 13.019531 -4.628906 12.90625 -4.515625 C 12.789062 -4.398438 12.65625 -4.34375 12.5 -4.34375 Z M 7.78125 -7.140625 C 7.78125 -8.003906 7.492188 -8.4375 6.921875 -8.4375 C 6.347656 -8.4375 6.0625 -8.003906 6.0625 -7.140625 L 6.0625 -7.046875 L 7.78125 -7.046875 Z M 7.78125 -7.140625 "/></g></g></g></svg>