<svg xmlns="http://www.w3.org/2000/svg" xmlns:xlink="http://www.w3.org/1999/xlink" width="500" zoomAndPan="magnify" viewBox="0 0 375 374.999991" height="500" preserveAspectRatio="xMidYMid meet" version="1.0"><defs><filter x="0%" y="0%" width="100%" height="100%" id="9f4cd2a130"><feColorMatrix values="0 0 0 0 1 0 0 0 0 1 0 0 0 0 1 0 0 0 1 0" color-interpolation-filters="sRGB"/></filter><clipPath id="f267a331d0"><path d="M 55.246094 43.171875 L 207 43.171875 L 207 331.921875 L 55.246094 331.921875 Z M 55.246094 43.171875 " clip-rule="nonzero"/></clipPath><mask id="f39c6bcdd7"><g filter="url(#9f4cd2a130)"><rect x="-37.5" width="450" fill="#000000" y="-37.499999" height="449.999989" fill-opacity="0.3"/></g></mask><clipPath id="d5ce6151ef"><path d="M 0.246094 0.199219 L 151.878906 0.199219 L 151.878906 288.921875 L 0.246094 288.921875 Z M 0.246094 0.199219 " clip-rule="nonzero"/></clipPath><clipPath id="f97af63b5d"><rect x="0" width="152" y="0" height="289"/></clipPath><mask id="4e40aa8772"><g filter="url(#9f4cd2a130)"><rect x="-37.5" width="450" fill="#000000" y="-37.499999" height="449.999989" fill-opacity="0.2"/></g></mask><clipPath id="2b3aba9e88"><path d="M 0.679688 0.238281 L 135.558594 0.238281 L 135.558594 261.601562 L 0.679688 261.601562 Z M 0.679688 0.238281 " clip-rule="nonzero"/></clipPath><clipPath id="d8a122536c"><rect x="0" width="136" y="0" height="262"/></clipPath><clipPath id="52f2d36acc"><path d="M 164 52 L 319.996094 52 L 319.996094 321 L 164 321 Z M 164 52 " clip-rule="nonzero"/></clipPath><clipPath id="5a9d321779"><path d="M 55.246094 43.171875 L 204 43.171875 L 204 331.921875 L 55.246094 331.921875 Z M 55.246094 43.171875 " clip-rule="nonzero"/></clipPath></defs><g clip-path="url(#f267a331d0)"><g mask="url(#f39c6bcdd7)"><g transform="matrix(1, 0, 0, 1, 55, 43)"><g clip-path="url(#f97af63b5d)"><g clip-path="url(#d5ce6151ef)"><path fill="#3c1589" d="M 133.296875 194.617188 C 134.847656 197.011719 136.1875 199.703125 137.308594 202.683594 C 141.6875 214.363281 141.207031 226.300781 141.066406 228.574219 C 140.617188 235.851562 138.878906 246.335938 133.152344 254.929688 C 132.570312 255.804688 131.953125 256.640625 131.316406 257.433594 C 131.410156 257.628906 131.5 257.832031 131.59375 258.050781 C 131.628906 258.136719 131.667969 258.222656 131.703125 258.316406 C 132.332031 259.824219 133.105469 262.109375 133.445312 264.84375 C 134.058594 269.738281 133.554688 278.910156 123.308594 285.296875 C 119.167969 287.878906 115.261719 288.78125 111.820312 288.78125 C 104.605469 288.78125 99.433594 284.808594 98.449219 283.988281 C 97.378906 283.171875 91.496094 278.367188 88.953125 269.707031 C 87.363281 270.328125 85.699219 270.789062 83.980469 271.058594 C 82.40625 271.308594 80.855469 271.429688 79.339844 271.429688 C 72.800781 271.429688 66.8125 269.15625 61.8125 264.738281 C 56.464844 260.015625 52.484375 252.941406 50.457031 244.867188 C 49.757812 245.109375 49 245.332031 48.191406 245.507812 C 46.941406 245.789062 45.488281 245.988281 43.886719 245.988281 C 40.191406 245.988281 35.699219 244.929688 31.039062 241.386719 C 22.546875 234.925781 21.046875 226.273438 21.019531 221.058594 C 19.859375 220.691406 18.714844 220.207031 17.605469 219.609375 C 9.136719 215.007812 4.394531 204.800781 4.589844 191.601562 C 4.742188 181.183594 9.042969 171.835938 15.953125 165.769531 C 13.167969 164.363281 10.597656 162.4375 8.351562 160.042969 C 3.257812 154.617188 0.378906 147.371094 0.25 139.644531 C 0.0273438 126.269531 6.828125 112.109375 22.535156 110.640625 C 22.84375 110.609375 23.148438 110.59375 23.453125 110.574219 C 23.398438 110.449219 23.339844 110.332031 23.285156 110.207031 C 21.480469 106.195312 20.53125 101.875 20.457031 97.375 C 20.320312 89.144531 23.15625 81.359375 28.449219 75.433594 C 33.738281 69.515625 40.855469 66.171875 48.472656 66.019531 C 48.84375 66.015625 49.21875 66.019531 49.589844 66.023438 C 49.355469 64.515625 49.226562 62.980469 49.199219 61.429688 C 49.0625 53.207031 51.902344 45.414062 57.191406 39.492188 C 62.484375 33.570312 69.59375 30.230469 77.214844 30.078125 C 77.738281 30.070312 78.265625 30.078125 78.789062 30.101562 C 78.824219 23.871094 80.828125 17.816406 84.65625 12.617188 C 90.074219 5.253906 98.746094 0.398438 106.746094 0.246094 C 115.648438 0.0664062 123.777344 3.308594 129.625 9.359375 C 131.105469 10.894531 132.421875 12.582031 133.574219 14.414062 C 137.316406 20.34375 139.335938 27.769531 139.480469 36.25 C 139.664062 47.355469 136.597656 57.902344 130.84375 65.9375 C 127.957031 69.96875 124.566406 73.144531 120.839844 75.367188 C 129.902344 81.394531 135.914062 92.113281 136.117188 104.339844 C 136.265625 113.285156 133.851562 121.277344 129.132812 127.445312 C 128.515625 128.253906 127.886719 129 127.242188 129.691406 C 132.589844 131.160156 137.511719 134.109375 141.59375 138.355469 C 147.777344 144.796875 151.269531 153.453125 151.425781 162.734375 C 151.65625 176.402344 144.492188 188.765625 133.300781 194.617188 Z M 133.296875 194.617188 " fill-opacity="1" fill-rule="nonzero"/></g></g></g></g></g><g mask="url(#4e40aa8772)"><g transform="matrix(1, 0, 0, 1, 175, 54)"><g clip-path="url(#d8a122536c)"><g clip-path="url(#2b3aba9e88)"><path fill="#1a6070" d="M 135.164062 79.234375 L 133.714844 159.871094 L 129.574219 161.089844 L 128.949219 204.988281 L 86.488281 255.972656 L 70.324219 255.972656 L 70.535156 261.117188 L 24.136719 260.21875 L 23.300781 247.898438 L 13.359375 247.316406 L 11.699219 247.316406 C 11.660156 247.222656 11.625 247.136719 11.589844 247.050781 C 11.496094 246.832031 11.40625 246.628906 11.3125 246.433594 C 11.953125 245.640625 12.566406 244.804688 13.152344 243.929688 C 18.875 235.332031 20.617188 224.851562 21.066406 217.574219 C 21.207031 215.300781 21.683594 203.363281 17.304688 191.683594 C 16.183594 188.703125 14.84375 186.011719 13.296875 183.617188 C 24.488281 177.769531 31.648438 165.402344 31.417969 151.734375 C 31.265625 142.453125 27.773438 133.796875 21.585938 127.355469 C 17.507812 123.109375 12.582031 120.160156 7.234375 118.691406 C 7.878906 118 8.507812 117.25 9.125 116.445312 C 13.84375 110.277344 16.261719 102.285156 16.109375 93.339844 C 15.90625 81.117188 9.898438 70.394531 0.835938 64.367188 C 4.5625 62.144531 7.953125 58.972656 10.835938 54.9375 C 16.589844 46.902344 19.65625 36.355469 19.472656 25.25 C 19.332031 16.769531 17.308594 9.34375 13.570312 3.414062 L 16.28125 0.621094 L 72.640625 0.621094 L 78.40625 6.710938 L 89.382812 9.117188 L 118.378906 41.292969 L 118.378906 76.816406 Z M 135.164062 79.234375 " fill-opacity="1" fill-rule="nonzero"/></g></g></g></g><path fill="#1a6070" d="M 213.195312 198.238281 C 211.386719 198.238281 209.828125 199.371094 209.082031 201.007812 L 181.078125 201.007812 C 180.328125 199.371094 178.769531 198.238281 176.960938 198.238281 C 174.425781 198.238281 172.371094 200.460938 172.371094 203.199219 C 172.371094 205.933594 174.425781 208.15625 176.960938 208.15625 C 178.769531 208.15625 180.328125 207.023438 181.078125 205.386719 L 209.082031 205.386719 C 209.828125 207.023438 211.386719 208.15625 213.195312 208.15625 C 215.730469 208.15625 217.789062 205.933594 217.789062 203.199219 C 217.789062 200.460938 215.734375 198.238281 213.195312 198.238281 Z M 213.195312 198.238281 " fill-opacity="1" fill-rule="nonzero"/><path fill="#1a6070" d="M 204.914062 278.96875 C 207.449219 278.96875 209.507812 276.75 209.507812 274.011719 C 209.507812 271.273438 207.449219 269.054688 204.914062 269.054688 C 204.769531 269.054688 204.625 269.0625 204.484375 269.078125 L 196.410156 257.890625 L 181.082031 257.890625 C 180.332031 256.25 178.773438 255.121094 176.964844 255.121094 C 174.429688 255.121094 172.371094 257.339844 172.371094 260.078125 C 172.371094 262.816406 174.425781 265.035156 176.964844 265.035156 C 178.773438 265.035156 180.332031 263.90625 181.082031 262.269531 L 194.425781 262.269531 L 201.015625 271.402344 C 200.582031 272.160156 200.324219 273.050781 200.324219 274.011719 C 200.324219 276.75 202.378906 278.96875 204.914062 278.96875 Z M 204.914062 278.96875 " fill-opacity="1" fill-rule="nonzero"/><path fill="#1a6070" d="M 214.9375 257.855469 L 226.894531 257.855469 L 236.480469 268.203125 L 253.363281 268.203125 L 263.519531 257.238281 L 263.519531 251.800781 L 274.8125 251.800781 L 274.8125 221.933594 L 256.820312 221.933594 L 248.171875 231.269531 L 248.171875 234.105469 L 236.796875 234.105469 L 227.210938 244.453125 L 208.472656 244.453125 C 207.722656 242.8125 206.164062 241.683594 204.355469 241.683594 C 201.820312 241.683594 199.765625 243.902344 199.765625 246.640625 C 199.765625 249.378906 201.820312 251.597656 204.355469 251.597656 C 206.164062 251.597656 207.722656 250.46875 208.472656 248.832031 L 228.894531 248.832031 L 238.480469 238.484375 L 248.171875 238.484375 L 248.171875 251.800781 L 259.460938 251.800781 L 259.460938 255.425781 L 251.683594 263.824219 L 238.160156 263.824219 L 228.574219 253.476562 L 214.433594 253.476562 C 213.609375 252.140625 212.207031 251.261719 210.609375 251.261719 C 208.074219 251.261719 206.015625 253.480469 206.015625 256.21875 C 206.015625 258.957031 208.070312 261.175781 210.609375 261.175781 C 212.613281 261.175781 214.3125 259.789062 214.9375 257.855469 Z M 252.226562 233.082031 L 258.503906 226.3125 L 270.753906 226.3125 L 270.753906 247.421875 L 252.226562 247.421875 Z M 252.226562 233.082031 " fill-opacity="1" fill-rule="nonzero"/><path fill="#1a6070" d="M 221.308594 222.472656 C 223.84375 222.472656 225.902344 220.253906 225.902344 217.515625 C 225.902344 214.777344 223.847656 212.558594 221.308594 212.558594 C 219.5 212.558594 217.941406 213.6875 217.191406 215.328125 L 181.078125 215.328125 C 180.328125 213.6875 178.769531 212.558594 176.960938 212.558594 C 174.425781 212.558594 172.371094 214.777344 172.371094 217.515625 C 172.371094 220.253906 174.425781 222.472656 176.960938 222.472656 C 178.769531 222.472656 180.328125 221.34375 181.078125 219.707031 L 217.191406 219.707031 C 217.941406 221.34375 219.5 222.472656 221.308594 222.472656 Z M 221.308594 222.472656 " fill-opacity="1" fill-rule="nonzero"/><path fill="#1a6070" d="M 177.867188 158.882812 L 195.625 158.882812 C 196.371094 160.523438 197.929688 161.652344 199.738281 161.652344 C 202.273438 161.652344 204.332031 159.433594 204.332031 156.695312 C 204.332031 153.957031 202.277344 151.738281 199.738281 151.738281 C 197.929688 151.738281 196.371094 152.867188 195.625 154.503906 L 177.867188 154.503906 C 177.117188 152.867188 175.558594 151.738281 173.753906 151.738281 C 171.21875 151.738281 169.160156 153.957031 169.160156 156.695312 C 169.160156 159.433594 171.214844 161.652344 173.753906 161.652344 C 175.558594 161.652344 177.117188 160.523438 177.867188 158.882812 Z M 177.867188 158.882812 " fill-opacity="1" fill-rule="nonzero"/><path fill="#1a6070" d="M 172.503906 99.628906 L 192.613281 99.628906 L 205.972656 81.046875 L 214.160156 81.046875 C 214.90625 82.683594 216.464844 83.8125 218.273438 83.8125 C 220.808594 83.8125 222.867188 81.59375 222.867188 78.855469 C 222.867188 76.117188 220.8125 73.898438 218.273438 73.898438 C 216.464844 73.898438 214.90625 75.027344 214.160156 76.667969 L 203.984375 76.667969 L 190.625 95.25 L 173.296875 95.25 C 172.753906 93.167969 170.984375 91.636719 168.878906 91.636719 C 166.34375 91.636719 164.289062 93.855469 164.289062 96.59375 C 164.289062 99.332031 166.34375 101.550781 168.878906 101.550781 C 170.355469 101.550781 171.664062 100.796875 172.503906 99.628906 Z M 172.503906 99.628906 " fill-opacity="1" fill-rule="nonzero"/><path fill="#1a6070" d="M 285.082031 139.960938 L 301.683594 139.960938 L 301.683594 206.203125 L 285.082031 206.203125 Z M 285.082031 139.960938 " fill-opacity="1" fill-rule="nonzero"/><g clip-path="url(#52f2d36acc)"><path fill="#1a6070" d="M 315.183594 139.757812 L 315.183594 137.566406 L 319.75 137.566406 L 319.75 133.1875 L 315.183594 133.1875 L 315.183594 131 L 310.894531 131 L 310.894531 129.394531 L 295.410156 129.394531 L 295.410156 94.183594 L 265.328125 60.726562 L 254.773438 59.675781 L 248.664062 52.398438 L 189.980469 52.398438 L 178.507812 67.117188 L 173.746094 67.039062 C 173.105469 65.128906 171.417969 63.761719 169.429688 63.761719 C 166.894531 63.761719 164.835938 65.980469 164.835938 68.71875 C 164.835938 71.457031 166.890625 73.675781 169.429688 73.675781 C 171.042969 73.675781 172.464844 72.773438 173.28125 71.410156 L 180.371094 71.53125 L 191.867188 56.78125 L 246.863281 56.78125 L 252.828125 63.882812 L 263.460938 64.941406 L 291.351562 95.960938 L 291.351562 129.398438 L 285.074219 129.398438 L 285.40625 100.285156 L 260.414062 72.625 L 250.199219 72.625 L 242.84375 62.363281 L 198.570312 62.363281 L 183.726562 81.140625 L 173.316406 81.140625 C 172.804688 79.007812 171.015625 77.429688 168.878906 77.429688 C 166.34375 77.429688 164.285156 79.648438 164.285156 82.386719 C 164.285156 85.125 166.339844 87.34375 168.878906 87.34375 C 170.3125 87.34375 171.589844 86.632812 172.433594 85.523438 L 185.597656 85.523438 L 200.441406 66.742188 L 240.851562 66.742188 L 248.207031 77.003906 L 258.707031 77.003906 L 281.332031 102.046875 L 281.019531 129.398438 L 275.871094 129.398438 L 275.871094 131.003906 L 271.582031 131.003906 L 271.582031 133.195312 L 241.183594 133.195312 L 223.9375 114.578125 L 195.335938 114.578125 L 175.464844 136.027344 C 174.933594 135.796875 174.359375 135.667969 173.753906 135.667969 C 171.21875 135.667969 169.160156 137.886719 169.160156 140.625 C 169.160156 143.363281 171.214844 145.582031 173.753906 145.582031 C 176.289062 145.582031 178.34375 143.363281 178.34375 140.625 C 178.34375 140.164062 178.28125 139.722656 178.171875 139.296875 L 197.015625 118.960938 L 222.257812 118.960938 L 239.503906 137.574219 L 271.582031 137.574219 L 271.582031 139.765625 L 275.867188 139.765625 L 275.867188 145.933594 L 271.582031 145.933594 L 271.582031 148.125 L 235.773438 148.125 L 226.1875 137.777344 L 205.765625 137.777344 C 205.015625 136.140625 203.457031 135.011719 201.648438 135.011719 C 199.113281 135.011719 197.054688 137.230469 197.054688 139.96875 C 197.054688 142.707031 199.109375 144.925781 201.648438 144.925781 C 203.457031 144.925781 205.015625 143.796875 205.765625 142.15625 L 224.503906 142.15625 L 234.089844 152.503906 L 271.578125 152.503906 L 271.578125 154.691406 L 275.867188 154.691406 L 275.867188 160.863281 L 271.578125 160.863281 L 271.578125 163.050781 L 230.363281 163.050781 L 220.777344 152.707031 L 215.671875 152.707031 C 214.921875 151.066406 213.363281 149.9375 211.554688 149.9375 C 209.019531 149.9375 206.960938 152.15625 206.960938 154.894531 C 206.960938 157.632812 209.015625 159.851562 211.554688 159.851562 C 213.363281 159.851562 214.921875 158.722656 215.671875 157.085938 L 219.09375 157.085938 L 228.679688 167.429688 L 271.578125 167.429688 L 271.578125 169.621094 L 275.867188 169.621094 L 275.867188 175.789062 L 271.578125 175.789062 L 271.578125 177.289062 L 223.328125 177.289062 L 223.328125 171.179688 L 220.253906 171.179688 L 220.253906 166.339844 L 216.199219 166.339844 L 216.199219 171.179688 L 213.367188 171.179688 L 213.367188 166.339844 L 209.308594 166.339844 L 209.308594 171.179688 L 207.183594 171.179688 L 207.183594 173.496094 L 202.867188 173.496094 L 202.867188 177.875 L 207.183594 177.875 L 207.183594 180.929688 L 202.867188 180.929688 L 202.867188 185.308594 L 207.183594 185.308594 L 207.183594 187.777344 L 209.308594 187.777344 L 209.308594 192.40625 L 213.367188 192.40625 L 213.367188 187.777344 L 216.199219 187.777344 L 216.199219 192.40625 L 220.253906 192.40625 L 220.253906 187.777344 L 223.328125 187.777344 L 223.328125 181.667969 L 271.578125 181.667969 L 271.578125 184.546875 L 275.867188 184.546875 L 275.867188 190.71875 L 271.578125 190.71875 L 271.578125 193.140625 L 243.828125 193.140625 L 234.242188 203.484375 L 230.816406 203.484375 C 230.070312 201.847656 228.511719 200.71875 226.703125 200.71875 C 224.167969 200.71875 222.109375 202.9375 222.109375 205.675781 C 222.109375 208.414062 224.164062 210.632812 226.703125 210.632812 C 228.511719 210.632812 230.070312 209.503906 230.816406 207.863281 L 235.921875 207.863281 L 245.507812 197.519531 L 271.582031 197.519531 L 271.582031 199.472656 L 275.867188 199.472656 L 275.867188 205.644531 L 271.582031 205.644531 L 271.582031 207.835938 L 250.511719 207.835938 L 230.460938 229.523438 L 217.308594 229.523438 C 216.558594 227.886719 215 226.757812 213.191406 226.757812 C 210.65625 226.757812 208.601562 228.976562 208.601562 231.714844 C 208.601562 234.453125 210.65625 236.671875 213.191406 236.671875 C 215 236.671875 216.558594 235.539062 217.308594 233.902344 L 232.140625 233.902344 L 252.195312 212.210938 L 271.578125 212.210938 L 271.578125 214.402344 L 275.867188 214.402344 L 275.867188 216.773438 L 280.976562 216.773438 L 280.976562 250.824219 L 263.101562 271.671875 L 253.707031 271.671875 L 250.222656 275.824219 L 233.328125 275.824219 L 222.917969 264.589844 L 220.429688 264.589844 C 219.710938 262.867188 218.109375 261.660156 216.242188 261.660156 C 213.707031 261.660156 211.652344 263.882812 211.652344 266.617188 C 211.652344 269.355469 213.707031 271.578125 216.242188 271.578125 C 217.992188 271.578125 219.511719 270.519531 220.289062 268.96875 L 221.238281 268.96875 L 231.644531 280.203125 L 252.019531 280.203125 L 255.503906 276.050781 L 264.871094 276.050781 L 285.027344 252.542969 L 285.027344 216.773438 L 291.34375 216.773438 L 291.34375 255.164062 L 252.984375 299.675781 L 247.632812 299.675781 L 247.632812 286.78125 L 245.0625 286.78125 L 245.0625 283.707031 L 241.003906 283.707031 L 241.003906 286.78125 L 236.640625 286.78125 L 236.640625 283.707031 L 232.582031 283.707031 L 232.582031 286.78125 L 228.214844 286.78125 L 228.214844 283.707031 L 224.160156 283.707031 L 224.160156 286.78125 L 219.792969 286.78125 L 219.792969 283.707031 L 215.738281 283.707031 L 215.738281 286.78125 L 211.371094 286.78125 L 211.371094 283.707031 L 207.3125 283.707031 L 207.3125 286.78125 L 202.949219 286.78125 L 202.949219 283.707031 L 198.890625 283.707031 L 198.890625 286.78125 L 196.75 286.78125 L 196.75 299.722656 L 190.121094 299.722656 L 180.636719 279.972656 C 181.199219 279.148438 181.53125 278.136719 181.53125 277.035156 C 181.53125 274.296875 179.476562 272.078125 176.941406 272.078125 C 174.402344 272.078125 172.347656 274.296875 172.347656 277.035156 C 172.347656 279.773438 174.402344 281.992188 176.941406 281.992188 C 176.972656 281.992188 177.003906 281.988281 177.035156 281.988281 L 187.652344 304.101562 L 196.75 304.101562 L 196.75 316.945312 L 198.886719 316.945312 L 198.886719 320.019531 L 202.945312 320.019531 L 202.945312 316.945312 L 207.3125 316.945312 L 207.3125 320.019531 L 211.367188 320.019531 L 211.367188 316.945312 L 215.734375 316.945312 L 215.734375 320.019531 L 219.792969 320.019531 L 219.792969 316.945312 L 224.15625 316.945312 L 224.15625 320.019531 L 228.214844 320.019531 L 228.214844 316.945312 L 232.578125 316.945312 L 232.578125 320.019531 L 236.636719 320.019531 L 236.636719 316.945312 L 241 316.945312 L 241 320.019531 L 245.058594 320.019531 L 245.058594 316.945312 L 247.628906 316.945312 L 247.628906 312.261719 L 261.308594 312.261719 L 306.117188 260.949219 L 306.117188 216.773438 L 310.882812 216.773438 L 310.882812 214.402344 L 315.167969 214.402344 L 315.167969 212.210938 L 319.734375 212.210938 L 319.734375 207.835938 L 315.167969 207.835938 L 315.167969 205.644531 L 310.882812 205.644531 L 310.882812 199.472656 L 315.167969 199.472656 L 315.167969 197.285156 L 319.734375 197.285156 L 319.734375 192.90625 L 315.167969 192.90625 L 315.167969 190.71875 L 310.882812 190.71875 L 310.882812 184.546875 L 315.167969 184.546875 L 315.167969 182.359375 L 319.734375 182.359375 L 319.734375 177.980469 L 315.167969 177.980469 L 315.167969 175.789062 L 310.882812 175.789062 L 310.882812 169.621094 L 315.167969 169.621094 L 315.167969 167.429688 L 319.734375 167.429688 L 319.734375 163.050781 L 315.167969 163.050781 L 315.167969 160.863281 L 310.882812 160.863281 L 310.882812 154.691406 L 315.167969 154.691406 L 315.167969 152.503906 L 319.734375 152.503906 L 319.734375 148.125 L 315.167969 148.125 L 315.167969 145.933594 L 310.882812 145.933594 L 310.882812 139.765625 L 315.167969 139.765625 Z M 219.277344 183.398438 L 211.246094 183.398438 L 211.246094 175.558594 L 219.277344 175.558594 Z M 225.410156 299.855469 C 226.15625 301.320312 227.597656 302.308594 229.25 302.308594 C 231.671875 302.308594 233.636719 300.191406 233.636719 297.578125 C 233.636719 294.960938 231.671875 292.84375 229.25 292.84375 C 227.527344 292.84375 226.039062 293.917969 225.324219 295.476562 L 208.296875 295.476562 L 204.738281 299.722656 L 200.828125 299.722656 L 200.828125 291.160156 L 243.589844 291.160156 L 243.589844 299.675781 L 240.40625 299.675781 L 235.738281 305.238281 L 218.078125 305.238281 C 217.523438 303.3125 215.859375 301.914062 213.894531 301.914062 C 211.46875 301.914062 209.507812 304.03125 209.507812 306.648438 C 209.507812 309.261719 211.472656 311.378906 213.894531 311.378906 C 215.269531 311.378906 216.5 310.691406 217.304688 309.617188 L 237.535156 309.617188 L 242.207031 304.054688 L 243.589844 304.054688 L 243.589844 312.570312 L 200.828125 312.570312 L 200.828125 304.105469 L 206.535156 304.105469 L 210.097656 299.859375 L 225.40625 299.859375 Z M 302.074219 259.207031 L 259.574219 307.882812 L 247.644531 307.882812 L 247.644531 304.046875 L 254.765625 304.046875 L 295.414062 256.882812 L 295.414062 216.769531 L 302.078125 216.769531 L 302.078125 259.207031 Z M 306.839844 212.394531 L 279.929688 212.394531 L 279.929688 133.773438 L 306.839844 133.773438 Z M 306.839844 212.394531 " fill-opacity="1" fill-rule="nonzero"/></g><path fill="#1a6070" d="M 261.488281 229.9375 C 257.613281 229.9375 254.457031 233.339844 254.457031 237.527344 C 254.457031 241.714844 257.613281 245.117188 261.488281 245.117188 C 265.367188 245.117188 268.519531 241.714844 268.519531 237.527344 C 268.519531 233.339844 265.367188 229.9375 261.488281 229.9375 Z M 261.488281 240.738281 C 259.847656 240.738281 258.515625 239.296875 258.515625 237.527344 C 258.515625 235.757812 259.847656 234.316406 261.488281 234.316406 C 263.128906 234.316406 264.464844 235.757812 264.464844 237.527344 C 264.464844 239.296875 263.128906 240.738281 261.488281 240.738281 Z M 261.488281 240.738281 " fill-opacity="1" fill-rule="nonzero"/><path fill="#1a6070" d="M 250.386719 80.464844 L 233.503906 80.464844 L 223.917969 90.808594 L 214.9375 90.808594 C 214.308594 88.878906 212.613281 87.492188 210.609375 87.492188 C 208.074219 87.492188 206.015625 89.710938 206.015625 92.449219 C 206.015625 95.1875 208.070312 97.40625 210.609375 97.40625 C 212.207031 97.40625 213.609375 96.523438 214.433594 95.1875 L 225.597656 95.1875 L 235.183594 84.84375 L 248.707031 84.84375 L 256.488281 93.242188 L 256.488281 96.863281 L 245.195312 96.863281 L 245.195312 110.183594 L 235.507812 110.183594 L 225.921875 99.835938 L 208.472656 99.835938 C 207.722656 98.199219 206.164062 97.066406 204.355469 97.066406 C 201.820312 97.066406 199.765625 99.289062 199.765625 102.023438 C 199.765625 104.761719 201.820312 106.984375 204.355469 106.984375 C 206.164062 106.984375 207.722656 105.851562 208.472656 104.214844 L 224.238281 104.214844 L 233.824219 114.558594 L 245.195312 114.558594 L 245.195312 117.398438 L 253.847656 126.734375 L 271.839844 126.734375 L 271.839844 103.804688 L 265.40625 96.863281 L 260.546875 96.863281 L 260.546875 91.425781 L 250.390625 80.464844 Z M 267.78125 105.621094 L 267.78125 122.359375 L 255.527344 122.359375 L 249.253906 115.585938 L 249.253906 101.246094 L 263.726562 101.246094 Z M 267.78125 105.621094 " fill-opacity="1" fill-rule="nonzero"/><path fill="#1a6070" d="M 258.515625 118.734375 C 262.390625 118.734375 265.546875 115.328125 265.546875 111.144531 C 265.546875 106.960938 262.390625 103.554688 258.515625 103.554688 C 254.640625 103.554688 251.484375 106.957031 251.484375 111.144531 C 251.484375 115.332031 254.640625 118.734375 258.515625 118.734375 Z M 258.515625 107.933594 C 260.15625 107.933594 261.488281 109.371094 261.488281 111.140625 C 261.488281 112.910156 260.15625 114.351562 258.515625 114.351562 C 256.875 114.351562 255.542969 112.910156 255.542969 111.140625 C 255.542969 109.371094 256.875 107.933594 258.515625 107.933594 Z M 258.515625 107.933594 " fill-opacity="1" fill-rule="nonzero"/><path fill="#3c1589" d="M 119.609375 174.339844 C 119.609375 175.671875 118.605469 176.753906 117.371094 176.753906 C 116.136719 176.753906 115.128906 175.671875 115.128906 174.339844 C 115.128906 173.003906 116.132812 171.917969 117.371094 171.917969 C 118.609375 171.917969 119.609375 173.003906 119.609375 174.339844 Z M 119.609375 174.339844 " fill-opacity="1" fill-rule="nonzero"/><path fill="#3c1589" d="M 93.683594 136.960938 C 93.683594 138.296875 92.679688 139.382812 91.441406 139.382812 C 90.203125 139.382812 89.203125 138.296875 89.203125 136.960938 C 89.203125 135.625 90.207031 134.542969 91.441406 134.542969 C 92.675781 134.542969 93.683594 135.628906 93.683594 136.960938 Z M 93.683594 136.960938 " fill-opacity="1" fill-rule="nonzero"/><path fill="#3c1589" d="M 112.988281 129.714844 C 112.988281 131.050781 111.984375 132.136719 110.75 132.136719 C 109.515625 132.136719 108.507812 131.050781 108.507812 129.714844 C 108.507812 128.378906 109.511719 127.296875 110.75 127.296875 C 111.988281 127.296875 112.988281 128.378906 112.988281 129.714844 Z M 112.988281 129.714844 " fill-opacity="1" fill-rule="nonzero"/><path fill="#3c1589" d="M 115.160156 195.28125 C 114.847656 196.570312 113.625 197.347656 112.425781 197.011719 C 111.226562 196.671875 110.507812 195.355469 110.820312 194.058594 C 111.132812 192.765625 112.359375 191.992188 113.558594 192.328125 C 114.753906 192.664062 115.472656 193.988281 115.160156 195.28125 Z M 115.160156 195.28125 " fill-opacity="1" fill-rule="nonzero"/><path fill="#3c1589" d="M 81.3125 173.382812 C 81 174.671875 79.777344 175.449219 78.578125 175.113281 C 77.378906 174.773438 76.664062 173.457031 76.972656 172.160156 C 77.285156 170.867188 78.511719 170.09375 79.707031 170.429688 C 80.90625 170.765625 81.625 172.089844 81.3125 173.382812 Z M 81.3125 173.382812 " fill-opacity="1" fill-rule="nonzero"/><path fill="#3c1589" d="M 145.777344 184.910156 C 145.777344 185.234375 145.71875 185.542969 145.605469 185.839844 C 145.492188 186.132812 145.332031 186.394531 145.121094 186.625 C 144.910156 186.851562 144.667969 187.023438 144.394531 187.148438 C 144.117188 187.269531 143.832031 187.332031 143.535156 187.332031 C 143.238281 187.332031 142.953125 187.269531 142.679688 187.148438 C 142.402344 187.023438 142.160156 186.851562 141.949219 186.625 C 141.742188 186.394531 141.578125 186.132812 141.464844 185.839844 C 141.351562 185.542969 141.292969 185.234375 141.292969 184.910156 C 141.292969 184.589844 141.351562 184.28125 141.464844 183.984375 C 141.578125 183.691406 141.742188 183.429688 141.949219 183.199219 C 142.160156 182.972656 142.402344 182.800781 142.679688 182.675781 C 142.953125 182.554688 143.238281 182.492188 143.535156 182.492188 C 143.832031 182.492188 144.117188 182.554688 144.394531 182.675781 C 144.667969 182.800781 144.910156 182.972656 145.121094 183.199219 C 145.332031 183.429688 145.492188 183.691406 145.605469 183.984375 C 145.71875 184.28125 145.777344 184.589844 145.777344 184.910156 Z M 145.777344 184.910156 " fill-opacity="1" fill-rule="nonzero"/><path fill="#3c1589" d="M 113.285156 240.84375 C 113.285156 242.179688 112.28125 243.261719 111.046875 243.261719 C 109.8125 243.261719 108.804688 242.179688 108.804688 240.84375 C 108.804688 239.507812 109.808594 238.425781 111.046875 238.425781 C 112.285156 238.425781 113.285156 239.507812 113.285156 240.84375 Z M 113.285156 240.84375 " fill-opacity="1" fill-rule="nonzero"/><path fill="#3c1589" d="M 103.441406 224.882812 C 103.441406 226.21875 102.4375 227.300781 101.203125 227.300781 C 99.96875 227.300781 98.960938 226.21875 98.960938 224.882812 C 98.960938 223.546875 99.964844 222.460938 101.203125 222.460938 C 102.441406 222.460938 103.441406 223.546875 103.441406 224.882812 Z M 103.441406 224.882812 " fill-opacity="1" fill-rule="nonzero"/><path fill="#3c1589" d="M 86.773438 228.285156 C 86.773438 228.609375 86.714844 228.917969 86.601562 229.210938 C 86.488281 229.507812 86.328125 229.769531 86.117188 229.996094 C 85.90625 230.226562 85.664062 230.398438 85.390625 230.523438 C 85.113281 230.644531 84.828125 230.707031 84.53125 230.707031 C 84.234375 230.707031 83.949219 230.644531 83.671875 230.523438 C 83.398438 230.398438 83.15625 230.226562 82.945312 229.996094 C 82.734375 229.769531 82.574219 229.507812 82.460938 229.210938 C 82.347656 228.917969 82.289062 228.609375 82.289062 228.285156 C 82.289062 227.964844 82.347656 227.65625 82.460938 227.359375 C 82.574219 227.0625 82.734375 226.800781 82.945312 226.574219 C 83.15625 226.347656 83.398438 226.175781 83.671875 226.050781 C 83.949219 225.929688 84.234375 225.867188 84.53125 225.867188 C 84.828125 225.867188 85.113281 225.929688 85.390625 226.050781 C 85.664062 226.175781 85.90625 226.347656 86.117188 226.574219 C 86.328125 226.800781 86.488281 227.0625 86.601562 227.359375 C 86.714844 227.65625 86.773438 227.964844 86.773438 228.285156 Z M 86.773438 228.285156 " fill-opacity="1" fill-rule="nonzero"/><path fill="#3c1589" d="M 78.003906 190.046875 C 78.003906 191.382812 77 192.464844 75.765625 192.464844 C 74.53125 192.464844 73.523438 191.382812 73.523438 190.046875 C 73.523438 188.710938 74.527344 187.625 75.765625 187.625 C 77.003906 187.625 78.003906 188.710938 78.003906 190.046875 Z M 78.003906 190.046875 " fill-opacity="1" fill-rule="nonzero"/><path fill="#3c1589" d="M 86.773438 245.679688 C 86.773438 247.015625 85.769531 248.101562 84.53125 248.101562 C 83.292969 248.101562 82.289062 247.015625 82.289062 245.679688 C 82.289062 244.34375 83.292969 243.261719 84.53125 243.261719 C 85.769531 243.261719 86.773438 244.347656 86.773438 245.679688 Z M 86.773438 245.679688 " fill-opacity="1" fill-rule="nonzero"/><path fill="#3c1589" d="M 125.050781 262.09375 C 123.8125 262.09375 122.808594 263.175781 122.808594 264.511719 C 122.808594 265.847656 123.8125 266.933594 125.050781 266.933594 C 126.289062 266.933594 127.292969 265.847656 127.292969 264.511719 C 127.292969 263.175781 126.289062 262.09375 125.050781 262.09375 Z M 125.050781 262.09375 " fill-opacity="1" fill-rule="nonzero"/><path fill="#3c1589" d="M 143.992188 291.375 C 143.992188 290.039062 142.988281 288.957031 141.75 288.957031 C 140.511719 288.957031 139.507812 290.039062 139.507812 291.375 C 139.507812 292.710938 140.511719 293.796875 141.75 293.796875 C 142.988281 293.796875 143.992188 292.710938 143.992188 291.375 Z M 143.992188 291.375 " fill-opacity="1" fill-rule="nonzero"/><path fill="#3c1589" d="M 125.050781 287.402344 C 123.8125 287.402344 122.808594 288.488281 122.808594 289.824219 C 122.808594 291.160156 123.8125 292.242188 125.050781 292.242188 C 126.289062 292.242188 127.292969 291.160156 127.292969 289.824219 C 127.292969 288.488281 126.289062 287.402344 125.050781 287.402344 Z M 125.050781 287.402344 " fill-opacity="1" fill-rule="nonzero"/><path fill="#3c1589" d="M 140.011719 254.074219 C 140.011719 254.398438 139.957031 254.707031 139.84375 255 C 139.730469 255.296875 139.566406 255.558594 139.355469 255.785156 C 139.144531 256.015625 138.902344 256.1875 138.628906 256.3125 C 138.355469 256.433594 138.070312 256.496094 137.773438 256.496094 C 137.472656 256.496094 137.1875 256.433594 136.914062 256.3125 C 136.640625 256.1875 136.398438 256.015625 136.1875 255.785156 C 135.976562 255.558594 135.8125 255.296875 135.699219 255 C 135.585938 254.707031 135.53125 254.398438 135.53125 254.074219 C 135.53125 253.753906 135.585938 253.445312 135.699219 253.148438 C 135.8125 252.851562 135.976562 252.589844 136.1875 252.363281 C 136.398438 252.136719 136.640625 251.964844 136.914062 251.839844 C 137.1875 251.71875 137.472656 251.65625 137.773438 251.65625 C 138.070312 251.65625 138.355469 251.71875 138.628906 251.839844 C 138.902344 251.964844 139.144531 252.136719 139.355469 252.363281 C 139.566406 252.589844 139.730469 252.851562 139.84375 253.148438 C 139.957031 253.445312 140.011719 253.753906 140.011719 254.074219 Z M 140.011719 254.074219 " fill-opacity="1" fill-rule="nonzero"/><path fill="#3c1589" d="M 167.171875 292.242188 C 167.171875 293.578125 168.175781 294.660156 169.414062 294.660156 C 170.648438 294.660156 171.652344 293.578125 171.652344 292.242188 C 171.652344 290.90625 170.648438 289.820312 169.414062 289.820312 C 168.175781 289.820312 167.171875 290.90625 167.171875 292.242188 Z M 167.171875 292.242188 " fill-opacity="1" fill-rule="nonzero"/><path fill="#3c1589" d="M 161.464844 271.585938 C 161.464844 272.921875 162.46875 274.003906 163.707031 274.003906 C 164.941406 274.003906 165.949219 272.921875 165.949219 271.585938 C 165.949219 270.25 164.941406 269.164062 163.707031 269.164062 C 162.46875 269.164062 161.464844 270.25 161.464844 271.585938 Z M 161.464844 271.585938 " fill-opacity="1" fill-rule="nonzero"/><path fill="#3c1589" d="M 148.589844 215.085938 C 147.351562 215.085938 146.347656 216.171875 146.347656 217.507812 C 146.347656 218.84375 147.351562 219.925781 148.589844 219.925781 C 149.828125 219.925781 150.832031 218.84375 150.832031 217.507812 C 150.832031 216.171875 149.828125 215.085938 148.589844 215.085938 Z M 148.589844 215.085938 " fill-opacity="1" fill-rule="nonzero"/><path fill="#3c1589" d="M 153.070312 238.707031 C 154.304688 238.707031 155.3125 237.621094 155.3125 236.285156 C 155.3125 234.949219 154.304688 233.867188 153.070312 233.867188 C 151.832031 233.867188 150.828125 234.949219 150.828125 236.285156 C 150.828125 237.621094 151.832031 238.707031 153.070312 238.707031 Z M 153.070312 238.707031 " fill-opacity="1" fill-rule="nonzero"/><path fill="#3c1589" d="M 128.59375 222.464844 C 128.59375 223.800781 129.597656 224.886719 130.835938 224.886719 C 132.074219 224.886719 133.078125 223.800781 133.078125 222.464844 C 133.078125 221.128906 132.074219 220.046875 130.835938 220.046875 C 129.597656 220.046875 128.59375 221.128906 128.59375 222.464844 Z M 128.59375 222.464844 " fill-opacity="1" fill-rule="nonzero"/><path fill="#3c1589" d="M 164.996094 189.929688 C 164.996094 191.265625 166.003906 192.351562 167.238281 192.351562 C 168.476562 192.351562 169.480469 191.265625 169.480469 189.929688 C 169.480469 188.59375 168.476562 187.511719 167.238281 187.511719 C 166.003906 187.511719 164.996094 188.59375 164.996094 189.929688 Z M 164.996094 189.929688 " fill-opacity="1" fill-rule="nonzero"/><path fill="#3c1589" d="M 138.511719 156.683594 C 138.511719 157.003906 138.457031 157.3125 138.339844 157.609375 C 138.226562 157.90625 138.066406 158.167969 137.855469 158.394531 C 137.644531 158.621094 137.402344 158.796875 137.128906 158.917969 C 136.855469 159.042969 136.566406 159.105469 136.269531 159.105469 C 135.972656 159.105469 135.6875 159.042969 135.414062 158.917969 C 135.136719 158.796875 134.894531 158.621094 134.6875 158.394531 C 134.476562 158.167969 134.3125 157.90625 134.199219 157.609375 C 134.085938 157.3125 134.03125 157.003906 134.03125 156.683594 C 134.03125 156.363281 134.085938 156.054688 134.199219 155.757812 C 134.3125 155.460938 134.476562 155.199219 134.6875 154.972656 C 134.894531 154.746094 135.136719 154.570312 135.414062 154.449219 C 135.6875 154.324219 135.972656 154.265625 136.269531 154.265625 C 136.566406 154.265625 136.855469 154.324219 137.128906 154.449219 C 137.402344 154.570312 137.644531 154.746094 137.855469 154.972656 C 138.066406 155.199219 138.226562 155.460938 138.339844 155.757812 C 138.457031 156.054688 138.511719 156.363281 138.511719 156.683594 Z M 138.511719 156.683594 " fill-opacity="1" fill-rule="nonzero"/><path fill="#3c1589" d="M 125.480469 97.707031 C 125.480469 99.042969 126.484375 100.125 127.722656 100.125 C 128.960938 100.125 129.964844 99.042969 129.964844 97.707031 C 129.964844 96.371094 128.960938 95.289062 127.722656 95.289062 C 126.484375 95.289062 125.480469 96.371094 125.480469 97.707031 Z M 125.480469 97.707031 " fill-opacity="1" fill-rule="nonzero"/><path fill="#3c1589" d="M 151.691406 68.636719 C 151.691406 69.972656 152.695312 71.058594 153.933594 71.058594 C 155.171875 71.058594 156.175781 69.972656 156.175781 68.636719 C 156.175781 67.300781 155.171875 66.21875 153.933594 66.21875 C 152.695312 66.21875 151.691406 67.300781 151.691406 68.636719 Z M 151.691406 68.636719 " fill-opacity="1" fill-rule="nonzero"/><path fill="#3c1589" d="M 137.183594 109.976562 C 137.183594 111.3125 138.1875 112.394531 139.425781 112.394531 C 140.664062 112.394531 141.667969 111.3125 141.667969 109.976562 C 141.667969 108.640625 140.664062 107.554688 139.425781 107.554688 C 138.1875 107.554688 137.183594 108.640625 137.183594 109.976562 Z M 137.183594 109.976562 " fill-opacity="1" fill-rule="nonzero"/><path fill="#3c1589" d="M 153.933594 104.4375 C 153.933594 105.773438 154.9375 106.855469 156.175781 106.855469 C 157.414062 106.855469 158.417969 105.773438 158.417969 104.4375 C 158.417969 103.101562 157.414062 102.015625 156.175781 102.015625 C 154.9375 102.015625 153.933594 103.101562 153.933594 104.4375 Z M 153.933594 104.4375 " fill-opacity="1" fill-rule="nonzero"/><path fill="#3c1589" d="M 148.535156 134.542969 C 148.535156 134.863281 148.476562 135.171875 148.363281 135.46875 C 148.25 135.765625 148.089844 136.027344 147.878906 136.253906 C 147.667969 136.480469 147.425781 136.65625 147.152344 136.78125 C 146.875 136.902344 146.589844 136.964844 146.292969 136.964844 C 145.996094 136.964844 145.710938 136.902344 145.433594 136.78125 C 145.160156 136.65625 144.917969 136.480469 144.707031 136.253906 C 144.496094 136.027344 144.335938 135.765625 144.222656 135.46875 C 144.109375 135.171875 144.050781 134.863281 144.050781 134.542969 C 144.050781 134.222656 144.109375 133.914062 144.222656 133.617188 C 144.335938 133.320312 144.496094 133.058594 144.707031 132.832031 C 144.917969 132.605469 145.160156 132.429688 145.433594 132.308594 C 145.710938 132.1875 145.996094 132.125 146.292969 132.125 C 146.589844 132.125 146.875 132.1875 147.152344 132.308594 C 147.425781 132.429688 147.667969 132.605469 147.878906 132.832031 C 148.089844 133.058594 148.25 133.320312 148.363281 133.617188 C 148.476562 133.914062 148.535156 134.222656 148.535156 134.542969 Z M 148.535156 134.542969 " fill-opacity="1" fill-rule="nonzero"/><path fill="#3c1589" d="M 161.273438 151.167969 C 161.273438 152.503906 162.277344 153.585938 163.515625 153.585938 C 164.75 153.585938 165.753906 152.503906 165.753906 151.167969 C 165.753906 149.832031 164.75 148.746094 163.515625 148.746094 C 162.277344 148.746094 161.273438 149.832031 161.273438 151.167969 Z M 161.273438 151.167969 " fill-opacity="1" fill-rule="nonzero"/><path fill="#3c1589" d="M 167.996094 133.234375 C 167.996094 133.554688 167.941406 133.863281 167.824219 134.160156 C 167.710938 134.457031 167.550781 134.71875 167.339844 134.945312 C 167.128906 135.171875 166.886719 135.347656 166.613281 135.472656 C 166.339844 135.59375 166.050781 135.65625 165.753906 135.65625 C 165.457031 135.65625 165.171875 135.59375 164.898438 135.472656 C 164.621094 135.347656 164.378906 135.171875 164.171875 134.945312 C 163.960938 134.71875 163.796875 134.457031 163.683594 134.160156 C 163.570312 133.863281 163.515625 133.554688 163.515625 133.234375 C 163.515625 132.914062 163.570312 132.605469 163.683594 132.308594 C 163.796875 132.011719 163.960938 131.75 164.171875 131.523438 C 164.378906 131.296875 164.621094 131.121094 164.898438 131 C 165.171875 130.878906 165.457031 130.816406 165.753906 130.816406 C 166.050781 130.816406 166.339844 130.878906 166.613281 131 C 166.886719 131.121094 167.128906 131.296875 167.339844 131.523438 C 167.550781 131.75 167.710938 132.011719 167.824219 132.308594 C 167.941406 132.605469 167.996094 132.914062 167.996094 133.234375 Z M 167.996094 133.234375 " fill-opacity="1" fill-rule="nonzero"/><path fill="#3c1589" d="M 102.105469 272.070312 C 102.105469 272.390625 102.050781 272.699219 101.933594 272.996094 C 101.820312 273.292969 101.660156 273.554688 101.449219 273.78125 C 101.238281 274.007812 100.996094 274.183594 100.722656 274.304688 C 100.449219 274.429688 100.160156 274.488281 99.863281 274.488281 C 99.566406 274.488281 99.28125 274.429688 99.007812 274.304688 C 98.730469 274.183594 98.488281 274.007812 98.28125 273.78125 C 98.070312 273.554688 97.90625 273.292969 97.792969 272.996094 C 97.679688 272.699219 97.625 272.390625 97.625 272.070312 C 97.625 271.75 97.679688 271.441406 97.792969 271.144531 C 97.90625 270.847656 98.070312 270.585938 98.28125 270.359375 C 98.488281 270.132812 98.730469 269.957031 99.007812 269.835938 C 99.28125 269.710938 99.566406 269.652344 99.863281 269.652344 C 100.160156 269.652344 100.449219 269.710938 100.722656 269.835938 C 100.996094 269.957031 101.238281 270.132812 101.449219 270.359375 C 101.660156 270.585938 101.820312 270.847656 101.933594 271.144531 C 102.050781 271.441406 102.105469 271.75 102.105469 272.070312 Z M 102.105469 272.070312 " fill-opacity="1" fill-rule="nonzero"/><path fill="#3c1589" d="M 198.46875 206.847656 C 198.425781 209.269531 198.070312 211.625 197.441406 213.867188 L 205.828125 213.867188 C 206.292969 211.589844 206.554688 209.242188 206.585938 206.847656 Z M 198.46875 206.847656 " fill-opacity="1" fill-rule="nonzero"/><path fill="#3c1589" d="M 184.292969 170.421875 C 186.566406 167.457031 188.296875 164.058594 189.46875 160.339844 L 180.710938 160.339844 C 176.984375 168.476562 170.113281 171.523438 167.988281 172.292969 C 167.59375 172.378906 167.199219 172.46875 166.808594 172.570312 C 166.65625 172.613281 166.507812 172.664062 166.363281 172.71875 C 163.21875 173.269531 158.515625 172.738281 155.390625 169.722656 C 152.324219 166.765625 151.386719 161.960938 152.601562 155.433594 C 153.042969 153.0625 151.621094 150.753906 149.425781 150.277344 C 147.226562 149.800781 145.089844 151.335938 144.648438 153.707031 C 142.378906 165.898438 146.296875 172.695312 149.984375 176.253906 C 154.03125 180.15625 159.300781 181.691406 164.011719 181.691406 C 166.1875 181.691406 168.234375 181.363281 169.992188 180.792969 C 171.296875 180.53125 172.628906 180.386719 173.976562 180.359375 C 180.402344 180.234375 186.492188 182.816406 191.117188 187.632812 C 194.300781 190.949219 196.523438 195.050781 197.644531 199.542969 L 205.976562 199.542969 C 204.714844 192.636719 201.542969 186.320312 196.75 181.328125 C 192.675781 177.082031 187.746094 174.136719 182.402344 172.664062 C 183.042969 171.972656 183.675781 171.222656 184.292969 170.417969 Z M 184.292969 170.421875 " fill-opacity="1" fill-rule="nonzero"/><path fill="#3c1589" d="M 186.300781 75.632812 L 192.984375 67.175781 C 192.351562 64.890625 191.550781 62.726562 190.570312 60.707031 L 184.742188 68.183594 C 185.503906 70.476562 186.023438 72.964844 186.296875 75.636719 Z M 186.300781 75.632812 " fill-opacity="1" fill-rule="nonzero"/><path fill="#3c1589" d="M 191 153.046875 C 191.210938 151.1875 191.3125 149.277344 191.277344 147.316406 C 191.183594 141.5625 189.792969 136.140625 187.410156 131.382812 L 181.328125 137.949219 C 182.460938 140.890625 183.109375 144.105469 183.167969 147.472656 C 183.203125 149.484375 183.074219 151.335938 182.824219 153.042969 L 191.003906 153.042969 Z M 191 153.046875 " fill-opacity="1" fill-rule="nonzero"/><g clip-path="url(#5a9d321779)"><path fill="#3c1589" d="M 203.515625 221.167969 L 194.175781 221.167969 C 191.398438 225.484375 187.410156 228.894531 182.597656 230.773438 C 178.726562 227.425781 174.121094 225.246094 168.859375 224.304688 C 168.039062 216.058594 164.605469 208.453125 159.007812 202.625 C 152.695312 196.050781 144.382812 192.535156 135.605469 192.691406 C 133.816406 192.726562 131.816406 192.976562 129.753906 193.472656 C 131.996094 187.484375 133.375 180.996094 133.28125 175.585938 C 133.171875 168.800781 131.339844 162.355469 127.964844 156.746094 C 130.769531 152.152344 132.390625 146.820312 132.636719 141.308594 C 141.503906 125.296875 148.5625 123.746094 154.265625 122.488281 C 155.691406 122.171875 157.171875 121.996094 158.667969 121.96875 C 159.097656 121.960938 159.511719 121.964844 159.894531 121.980469 L 159.96875 121.980469 C 160.40625 121.996094 160.839844 122.027344 161.273438 122.070312 C 161.300781 122.070312 161.335938 122.074219 161.367188 122.078125 C 168.011719 122.746094 173.808594 126.277344 177.75 131.492188 L 183.515625 125.273438 C 181.363281 122.574219 178.835938 120.230469 176.003906 118.351562 C 179.726562 116.125 183.121094 112.957031 186.003906 108.917969 C 187.726562 106.515625 189.203125 103.890625 190.425781 101.089844 L 181.1875 101.089844 C 180.683594 101.945312 180.152344 102.773438 179.585938 103.5625 C 175.160156 109.75 169.277344 113.21875 163.023438 113.34375 C 162.644531 113.351562 162.277344 113.34375 161.929688 113.332031 C 161.835938 113.324219 161.746094 113.320312 161.65625 113.320312 C 161.171875 113.277344 160.679688 113.246094 160.195312 113.226562 L 160.117188 113.226562 C 159.609375 113.207031 159.070312 113.203125 158.519531 113.214844 C 156.527344 113.253906 154.546875 113.492188 152.636719 113.914062 C 145.84375 115.40625 138.628906 117.898438 130.773438 128.71875 C 130.652344 128.375 130.527344 128.035156 130.390625 127.699219 C 127.238281 119.730469 121 113.507812 113.46875 110.6875 C 112.84375 108.625 112.507812 106.46875 112.472656 104.253906 C 112.371094 98.371094 114.40625 92.796875 118.191406 88.558594 C 121.976562 84.320312 127.066406 81.929688 132.519531 81.820312 C 133.496094 81.804688 134.476562 81.859375 135.441406 81.988281 C 140.980469 82.730469 146.058594 85.960938 149.375 90.847656 C 150.703125 92.800781 153.238281 93.222656 155.046875 91.792969 C 156.851562 90.367188 157.242188 87.625 155.917969 85.675781 C 152.445312 80.558594 147.585938 76.742188 142.113281 74.714844 C 141.65625 68.683594 143.980469 64.023438 146.167969 61.054688 C 150.144531 55.660156 156.378906 52.101562 162.058594 51.988281 C 168.898438 51.847656 174.824219 54.164062 179.167969 58.667969 C 179.941406 59.472656 180.652344 60.34375 181.308594 61.269531 L 186.628906 54.445312 C 186.042969 53.71875 185.433594 53.019531 184.785156 52.347656 C 178.941406 46.289062 170.8125 43.046875 161.910156 43.222656 C 153.910156 43.378906 145.238281 48.234375 139.816406 55.589844 C 135.988281 60.789062 133.984375 66.84375 133.953125 73.074219 C 133.429688 73.058594 132.902344 73.046875 132.375 73.058594 C 124.757812 73.203125 117.644531 76.550781 112.351562 82.46875 C 107.0625 88.394531 104.222656 96.183594 104.359375 104.40625 C 104.386719 105.960938 104.515625 107.492188 104.753906 109.003906 C 104.378906 108.992188 104.007812 108.992188 103.632812 109 C 96.011719 109.144531 88.902344 112.492188 83.609375 118.414062 C 78.320312 124.335938 75.480469 132.128906 75.617188 140.351562 C 75.695312 144.855469 76.644531 149.171875 78.445312 153.183594 C 78.5 153.308594 78.558594 153.425781 78.617188 153.550781 C 78.3125 153.566406 78.003906 153.589844 77.695312 153.617188 C 61.992188 155.085938 55.1875 169.246094 55.414062 182.621094 C 55.539062 190.351562 58.417969 197.597656 63.511719 203.023438 C 65.761719 205.421875 68.332031 207.34375 71.117188 208.753906 C 64.203125 214.816406 59.90625 224.167969 59.753906 234.582031 C 59.558594 247.78125 64.304688 257.992188 72.769531 262.585938 C 73.875 263.1875 75.019531 263.671875 76.183594 264.039062 C 76.207031 269.253906 77.710938 277.90625 86.203125 284.367188 C 90.859375 287.910156 95.355469 288.964844 99.050781 288.964844 C 100.652344 288.964844 102.101562 288.769531 103.355469 288.492188 C 104.164062 288.308594 104.921875 288.085938 105.621094 287.847656 C 107.652344 295.917969 111.628906 302.992188 116.976562 307.71875 C 121.976562 312.136719 127.964844 314.40625 134.5 314.40625 C 136.019531 314.40625 137.570312 314.285156 139.144531 314.039062 C 140.863281 313.769531 142.523438 313.308594 144.113281 312.6875 C 146.65625 321.347656 152.539062 326.148438 153.617188 326.96875 C 154.601562 327.785156 159.769531 331.761719 166.984375 331.761719 C 170.425781 331.761719 174.332031 330.859375 178.472656 328.273438 C 188.714844 321.886719 189.21875 312.722656 188.609375 307.820312 C 188.511719 307.023438 188.367188 306.269531 188.210938 305.558594 L 186.851562 305.558594 L 181.113281 293.605469 C 177.621094 298.445312 172.417969 302.09375 164.648438 302.246094 C 162.410156 302.289062 160.628906 304.289062 160.667969 306.703125 C 160.707031 309.09375 162.515625 311.003906 164.722656 311.003906 L 164.796875 311.003906 C 170.488281 310.894531 175.613281 309.320312 180.003906 306.386719 C 180.535156 308.136719 180.929688 310.464844 180.472656 312.816406 C 179.863281 315.917969 177.828125 318.566406 174.417969 320.695312 C 165.941406 325.980469 159.042969 320.425781 158.582031 320.039062 C 158.460938 319.929688 158.4375 319.910156 158.296875 319.816406 C 158.058594 319.636719 152.859375 315.703125 151.425781 308.285156 C 157.078125 303.429688 160.675781 296.167969 160.585938 288.441406 C 160.519531 282.945312 157.828125 275.574219 151.957031 271.484375 C 147.882812 268.648438 140.765625 266.335938 129.984375 271.425781 C 127.933594 272.394531 126.996094 274.976562 127.894531 277.191406 C 128.792969 279.410156 131.183594 280.421875 133.238281 279.453125 C 137.367188 277.503906 143.207031 275.816406 147.558594 278.851562 C 151.109375 281.320312 152.445312 286.007812 152.472656 288.554688 C 152.574219 296.699219 146.203125 304.085938 137.980469 305.375 C 131.871094 306.335938 126.535156 304.84375 122.121094 300.945312 C 116.441406 295.929688 112.761719 287.21875 112.28125 277.644531 C 111.789062 267.882812 113.816406 258.945312 118.300781 251.078125 C 121.660156 245.1875 125.238281 242.101562 125.332031 242.023438 C 125.425781 241.945312 125.511719 241.863281 125.597656 241.78125 C 129.6875 242.945312 133.964844 242.601562 137.558594 240.644531 C 142.328125 238.046875 145.089844 232.996094 145.128906 226.796875 C 145.144531 224.378906 143.34375 222.40625 141.101562 222.386719 L 141.070312 222.386719 C 138.847656 222.386719 137.03125 224.328125 137.015625 226.730469 C 136.996094 229.660156 135.945312 231.707031 133.902344 232.824219 C 131.050781 234.378906 126.878906 233.746094 123.753906 231.292969 C 121.21875 229.304688 117.191406 224.421875 118.679688 214.054688 C 119 211.8125 119.863281 209.90625 121.0625 208.3125 C 121.578125 207.792969 122.089844 207.226562 122.589844 206.613281 C 126.332031 203.0625 131.886719 201.53125 135.753906 201.457031 C 142.363281 201.328125 148.621094 203.980469 153.375 208.9375 C 158.132812 213.890625 160.816406 220.542969 160.933594 227.679688 C 161.085938 236.628906 157.097656 245.023438 150.269531 250.132812 C 148.425781 251.511719 147.96875 254.238281 149.246094 256.226562 C 150.03125 257.457031 151.292969 258.113281 152.582031 258.113281 C 153.375 258.113281 154.183594 257.855469 154.886719 257.332031 C 162.492188 251.644531 167.4375 242.886719 168.71875 233.195312 C 176.222656 234.949219 181.671875 240.242188 184.945312 248.957031 C 185.886719 251.464844 186.558594 254.011719 187.039062 256.433594 L 195.3125 256.433594 C 194.734375 253.023438 193.839844 249.335938 192.464844 245.667969 C 191.347656 242.6875 190.003906 240 188.457031 237.601562 C 195.167969 234.09375 200.425781 228.246094 203.511719 221.175781 Z M 104.175781 278.113281 C 104.195312 278.4375 104.214844 278.765625 104.238281 279.089844 C 101.554688 280.273438 96.460938 281.457031 90.875 277.210938 C 85.667969 273.246094 84.476562 268.085938 84.3125 264.761719 C 87.703125 264.316406 90.96875 262.933594 93.722656 260.65625 C 100.050781 255.417969 102.578125 246.671875 100.664062 236.664062 C 100.207031 234.296875 98.0625 232.769531 95.867188 233.261719 C 93.675781 233.75 92.261719 236.066406 92.71875 238.433594 C 94 245.125 92.605469 250.546875 88.789062 253.707031 C 85.339844 256.5625 80.488281 256.976562 76.417969 254.765625 C 70.84375 251.738281 67.726562 244.429688 67.871094 234.71875 C 68.03125 223.683594 74.375 214.285156 83.652344 211.328125 C 85.539062 210.726562 87.511719 210.40625 89.507812 210.363281 L 89.6875 210.363281 C 89.8125 210.359375 89.941406 210.359375 90.066406 210.359375 C 90.144531 210.363281 90.222656 210.363281 90.300781 210.363281 L 90.589844 210.363281 C 93.945312 210.390625 102.847656 210.457031 109.503906 218.640625 C 109.738281 218.929688 110 219.171875 110.285156 219.375 C 110.527344 226.855469 113.179688 233.207031 117.921875 237.476562 C 113.117188 242.660156 103.078125 256.214844 104.179688 278.117188 Z M 116.929688 200.292969 C 114.625 202.535156 112.734375 205.335938 111.59375 208.757812 C 103.308594 201.703125 94.019531 201.632812 90.644531 201.605469 L 90.261719 201.605469 C 90.261719 201.605469 90.242188 201.601562 90.234375 201.601562 C 90.027344 201.601562 89.816406 201.601562 89.609375 201.605469 C 89.523438 201.605469 89.449219 201.605469 89.355469 201.605469 C 86.859375 201.652344 84.390625 202.035156 82.011719 202.730469 C 71.953125 202.367188 63.707031 193.390625 63.523438 182.464844 C 63.382812 173.839844 67.191406 163.390625 78.398438 162.339844 C 80.960938 162.101562 83.253906 162.3125 85.261719 162.855469 C 85.976562 163.425781 86.820312 163.714844 87.660156 163.714844 C 91.605469 165.527344 94.039062 168.773438 94.628906 172.164062 C 95.402344 176.605469 92.980469 180.160156 88.15625 181.6875 C 86.007812 182.363281 84.773438 184.792969 85.402344 187.113281 C 86.035156 189.4375 88.285156 190.769531 90.4375 190.089844 C 100.628906 186.875 103.890625 177.960938 102.605469 170.550781 C 101.476562 164.0625 96.824219 157.851562 89.410156 155.046875 C 89.367188 154.996094 89.320312 154.949219 89.28125 154.898438 C 89.265625 154.882812 89.25 154.863281 89.234375 154.847656 C 89.105469 154.699219 88.976562 154.542969 88.84375 154.386719 C 87.605469 152.871094 86.5625 151.1875 85.75 149.371094 C 84.464844 146.503906 83.78125 143.414062 83.730469 140.191406 C 83.632812 134.304688 85.664062 128.726562 89.453125 124.488281 C 93.238281 120.25 98.324219 117.859375 103.78125 117.75 C 105.667969 117.714844 107.539062 117.953125 109.347656 118.46875 C 115.394531 120.183594 120.472656 124.914062 122.9375 131.136719 C 123.972656 133.742188 124.519531 136.523438 124.566406 139.398438 C 124.628906 142.984375 123.875 146.5 122.410156 149.65625 C 118.757812 146.058594 114.425781 143.386719 109.640625 141.824219 C 107.496094 141.125 105.230469 142.433594 104.582031 144.75 C 103.933594 147.066406 105.148438 149.507812 107.292969 150.210938 C 112.242188 151.824219 116.554688 155.003906 119.777344 159.410156 C 119.78125 159.417969 119.785156 159.425781 119.789062 159.429688 C 123.210938 164.117188 125.074219 169.757812 125.171875 175.742188 C 125.300781 183.242188 121.414062 194.460938 116.929688 200.289062 Z M 116.929688 200.292969 " fill-opacity="1" fill-rule="nonzero"/></g><path fill="#3c1589" d="M 186.03125 86.976562 C 185.679688 89.332031 185.144531 91.609375 184.4375 93.789062 L 189.960938 93.789062 L 194.089844 88.046875 C 194.5 85.171875 194.691406 82.21875 194.640625 79.226562 C 194.625 78.296875 194.582031 77.378906 194.523438 76.476562 L 186.222656 86.976562 Z M 186.03125 86.976562 " fill-opacity="1" fill-rule="nonzero"/><path fill="#3c1589" d="M 193.761719 263.726562 L 188.023438 263.726562 C 188.3125 267.597656 188.171875 270.398438 188.136719 270.96875 C 187.949219 274.039062 187.292969 280.058594 185.078125 286.007812 L 189.707031 295.648438 C 194.328125 287.53125 195.820312 278.203125 196.230469 271.554688 C 196.269531 270.882812 196.34375 269.363281 196.308594 267.257812 Z M 193.761719 263.726562 " fill-opacity="1" fill-rule="nonzero"/></svg>